<svg width="1780" height="165" viewBox="0 0 1780 165" fill="none" xmlns="http://www.w3.org/2000/svg">
<path d="M130.028 163.829C131.137 163.629 135.709 164.053 137.496 163.958C135.633 165.986 125.97 164.555 130.028 163.829ZM145.749 158.712C143.404 160.496 137.509 159.222 134.17 159.745C129.139 160.481 121.321 167.34 124.563 160.504C131.692 159.906 138.646 159.31 145.749 158.712ZM1735.67 0.0198001C1738.4 0.486168 1730.3 2.28453 1730.12 3.48427C1730.1 3.66629 1738.31 5.08325 1738.51 5.2671C1739.87 7.30519 1731.2 6.67216 1732.98 8.44898C1735.13 8.62956 1737.28 8.81122 1739.43 8.99499C1732.72 11.7047 1718.21 12.3097 1715.66 14.8842C1726.56 12.9502 1738.38 11.7508 1740.57 16.6217C1741.5 18.6705 1737.25 20.3966 1737.68 20.8974C1739.42 22.8834 1745.11 18.9889 1745.71 20.3077C1746.19 21.399 1737.1 23.2135 1736.84 23.7687C1736.46 24.741 1742.36 27.9214 1742.72 28.7299C1742.64 28.9091 1736.36 30.5079 1739.27 31.6624C1742.2 32.829 1748.08 32.2216 1748.34 32.3497C1749.85 33.0753 1739.99 34.9693 1739.93 35.5071C1739.9 35.7769 1746.09 36.7314 1746.44 37.1643C1746.79 37.5982 1743.09 39.0357 1742.13 40.6358C1741.41 41.8242 1745.33 42.2399 1744.78 42.4744C1744.38 42.6305 1734.84 43.6823 1734.45 43.9241C1733.89 44.2768 1736.71 45.2801 1736.54 45.6319C1736.3 46.1362 1733.02 46.0318 1733.64 46.4518C1734.12 46.7577 1748.04 49.7621 1748.5 50.9368C1749.28 52.9281 1734.65 49.7768 1749.95 56.2818C1750.07 56.3209 1752.6 55.4613 1752.72 55.4968C1755.12 56.7431 1747.13 59.9438 1757.98 58.3472C1738.64 63.1043 1756.82 61.5983 1755.34 65.2657C1754.76 66.6735 1747.16 68.0821 1747.2 68.2818C1748.75 69.8166 1750.64 68.2779 1751.87 68.9779C1752.54 69.3708 1746.35 71.8772 1748.47 72.8121C1749.56 73.2905 1756.88 72.2551 1757.25 72.3342C1760.68 73.0654 1757.61 74.603 1758.61 75.2823C1759.27 75.7371 1763.76 75.2847 1763.91 75.3643C1764.19 75.5318 1759.07 78.2347 1758.16 79.0904C1757.46 79.7467 1761.45 80.2103 1760.9 80.5244C1757.56 82.4007 1747.31 79.714 1757.95 83.9068C1758.6 84.1636 1761.63 83.6936 1761.76 83.7446C1764.35 84.984 1758.71 85.7451 1758.27 87.0486C1757.5 89.2925 1765.11 87.235 1759.02 89.4367C1764.73 90.2041 1767.53 89.8347 1773.31 88.8122C1757.28 91.6669 1754.13 97.6226 1772.19 95.4673C1766.38 96.0206 1768.42 98.9473 1766.74 99.19C1765.67 99.337 1755.95 97.3071 1762.95 103.548C1767.26 107.392 1765.37 100.601 1767.96 105.924C1769.67 109.844 1738.84 110.046 1734.03 111.153C1728.45 112.394 1724.93 116.13 1723.65 116.296C1719.48 116.829 1722.1 114.825 1720.86 114.37C1719.61 113.917 1709.3 118.455 1708.6 118.375C1705.92 118.021 1707.24 115.868 1706.95 115.802C1705.03 115.39 1699.56 116.272 1694.12 117.207C1688.82 118.116 1683.4 119.123 1678.02 119.361C1678.96 120.573 1693.92 118.839 1685.66 121.91C1675.23 125.517 1672.14 120.143 1671.79 119.945C1623.01 124.108 1594.33 124.076 1559.54 125.2C1560.18 128.108 1581.98 125.341 1582.7 125.693C1585.6 127.831 1550.92 128.755 1544.53 127.956C1547.89 128.476 1551.11 128.996 1554.4 129.514C1548.98 132.995 1535.58 128.94 1527.09 130.592C1524.32 131.127 1529.81 132.302 1529.72 132.397C1526.6 133.764 1521.79 132.86 1525.21 131.044C1518.04 132.863 1518.93 130.996 1513.1 130.972C1512.79 130.972 1515.44 132.274 1510.81 132.924C1508.81 133.225 1497.54 133.44 1496 134.649C1495.41 135.158 1501.68 140.284 1502.02 135.766C1514.4 137.732 1505.76 133.641 1510.45 133.655C1511.13 133.668 1509.86 136.21 1521.81 134.787C1519.96 139.368 1505.59 136.252 1503.37 136.84C1495.29 138.884 1520.05 136.82 1528.39 136.908C1533.48 136.96 1531.36 138.06 1534.07 138.009C1541.44 137.878 1537.89 135.453 1544.42 137.564C1537.87 130.728 1554.49 136.417 1559.8 138.114C1551.83 138.661 1544.12 139.19 1536.54 139.707C1540.08 142.384 1531.43 141.243 1532.73 139.679C1522.12 142.185 1519.77 139.66 1518.81 139.651C1507.58 139.576 1495.03 139.83 1484.13 140.012C1482.54 140.038 1483.54 142.309 1471.56 140.724C1467.72 140.219 1471.2 138.382 1466.88 138.721C1463.87 141.604 1456.53 140.954 1452.13 141.144C1446.61 141.419 1437.67 141.357 1431.73 141.625C1431.62 141.645 1434.93 143.079 1430.88 142.702C1429.59 142.564 1415.88 136.439 1405.12 138.656C1408.06 139.042 1410.96 139.427 1413.83 139.813C1410.66 139.264 1386.24 141.205 1392.34 142.813C1396.13 143.797 1404.77 139.592 1405.94 143.501C1397.5 142.454 1353.91 144.8 1350.29 143.93C1349.81 143.803 1352.68 142.497 1352.02 142.342C1348.21 141.467 1343.67 143.505 1339.92 142.187C1339.68 142.103 1343.25 140.768 1343.12 140.615C1341.72 139.305 1330.31 139.887 1329.65 141.51C1332.72 140.831 1341.3 141.281 1336.89 142.683C1336.32 142.857 1333.26 141.867 1332.56 142.088C1330.49 142.738 1344.98 143.412 1348.85 143.382C1333.71 146.041 1318.12 143.283 1302.88 144.921C1297.03 143.664 1311.34 142.785 1304.75 141.765C1291.01 139.651 1301.23 143.646 1300.81 143.82C1294.52 146.456 1283.12 142.067 1275.48 142.951C1276.41 143.319 1277.34 143.686 1278.27 144.054C1270.82 147.309 1253.72 139.519 1254.99 138.894C1258.23 137.225 1267.02 139.666 1267.73 139.597C1268.79 139.492 1271.58 133.915 1283.46 138.733C1288.08 134.957 1264.79 136.443 1275.31 133.782C1268.08 134.286 1238.24 132.041 1233.99 133.721C1233.48 133.94 1236.07 137.618 1228.55 135.816C1224.97 134.958 1233.48 134.819 1231.83 133.993C1226.76 131.464 1160.02 133.859 1147.4 134.126C1146.58 134.139 1146.83 132.985 1146.03 133.004C1143.55 133.064 1134.56 134.874 1130.05 134.393C1139.43 136.423 1121.38 136.78 1116.92 136.593C1110.03 136.308 1110.36 134.279 1107.36 133.88C1095.71 132.342 1078.17 137.33 1069.03 132.929C1069.74 137.383 1053.35 130.903 1046.21 130.935C1040.55 130.961 1032.43 133.995 1040.17 135.715C1030.4 135.609 1019.94 136.545 1010.86 136.907C1009.34 136.967 1011.37 135.628 1008.79 135.773C1008.56 135.799 1008.29 137.091 1006.07 137.247C996.662 137.919 995.785 134.675 988.653 134.241C999.407 133.882 1011.7 133.252 1014.99 133.182C1012.08 130.358 991.311 133.966 985.095 133.259C984.88 133.233 985.554 131.662 985.342 131.645C983.326 131.666 970.443 133.465 971.527 134.117C972.375 134.61 979.017 134.543 987.058 134.294C984.902 134.667 986.596 136.413 986.216 136.492C981.565 137.408 970.263 135.8 966.216 135.607C965.299 135.566 965.408 136.687 965.26 136.697C961.592 136.477 962.96 133.24 959.343 136.6C952.552 132.648 971.733 135.881 970.277 133.285C969.176 131.288 926.917 132.779 927.191 135.94C925.331 132.012 911.779 133.83 908.747 134.735C908.408 134.853 908.667 137.923 908.242 137.955C907.173 138.034 892.734 135.765 887.432 137.631C890.35 138.033 893.268 138.437 896.183 138.84C890.431 138.903 877.598 140.542 888.148 140.914C892.7 141.549 898.519 142.148 898.616 142.389C901.935 150.622 880.172 143.739 872.087 140.076C868.922 138.616 888.143 136.454 885.701 134.36C881.102 136.42 875.039 135.414 869.686 135.986C867.259 136.244 866.721 137.789 866.421 137.823C861.94 138.267 864.398 136.629 862.899 136.683C862.095 136.719 853.362 140.237 854.85 135.485C825.746 139.244 846.913 139.042 864.819 138.606C859.229 140.384 848.087 139.655 843.114 140.103C841.33 140.265 842.452 141.836 839.441 142.18C833.235 142.889 803.482 141.351 795.732 140.994C800.459 140.391 799.002 138.683 795.341 138.836C791.68 138.99 794.85 141.258 794.144 141.512C793.385 141.775 776.133 140.85 773.284 141.174C786.203 140.222 783.213 138.532 772.216 138.454C773.786 137.945 775.356 137.435 776.925 136.926C770.503 137.68 756.888 135.186 753.173 136C752.596 136.131 754.745 137.549 754.428 137.627C751.177 138.271 739.995 136.901 739.499 137.399C739.082 137.813 743.865 138.98 742.129 139.591C741.762 139.718 737.116 137.81 732.64 138.33C730.978 138.522 732.034 139.877 731.618 139.961C728.141 140.65 730.116 138.332 723.734 138.759C719.074 139.076 715.632 141.355 709.11 140.669C730.576 143.34 712.565 142.308 703.688 143.256C702.266 143.408 703.578 145.875 695.012 144.746C712.982 140.101 689.744 142.423 684.996 142.417C684.735 142.405 684.58 140.772 682.248 140.767C682.053 140.777 682.371 141.872 680.198 141.976C659.538 142.961 672.719 141.594 668.748 140.54C667.054 140.092 657.088 141.743 654.4 141.805C653.782 141.813 654.021 140.665 651.63 140.731C647.401 140.851 643.643 142.107 640.818 142.229C640.49 142.238 640.403 140.425 635.088 141.06C633.594 141.238 631.937 141.897 634.084 142.398C641.246 144.047 654.452 140.965 662.477 142.602C669.786 144.093 646.932 144.446 645.76 144.465C645.324 144.475 649.742 143.535 645.211 143.398C641.302 143.285 634.3 146.476 628.49 145.847C628.047 145.8 623.339 143.195 623.534 143.033C623.721 142.919 630.796 142.279 629.738 141.521C629.601 141.435 625.103 141.491 624.495 140.926C623.748 140.236 621.549 133.429 620.582 133.266C618.102 132.866 619.764 134.408 618.166 134.314C614.752 134.116 602.804 132.203 602.481 134.573C604.459 134.695 606.44 134.818 608.423 134.941C597.439 135.282 602.164 136.247 600.625 136.704C598.969 137.199 599.361 135.116 595.661 134.953C594.844 134.917 579.47 135.489 579.793 136.359C588.232 134.895 585.185 137.492 585.577 137.535C587.073 137.688 588.923 136.231 590.928 136.242C605.048 136.343 590.9 138.743 594.253 139.298C595.407 139.485 597.647 138.236 598.138 138.294C599.729 138.483 599.816 140.094 600.868 139.954C603.324 139.63 600.363 137.379 600.549 137.256C602.697 135.809 611.429 137.507 606.129 140.036C609.409 140.902 609.646 137.884 612.232 139.066C617.362 141.409 609.798 140.862 607.745 141.277C602.086 142.424 566.145 140.656 566.129 146.93C562.039 146.194 555.495 140.994 551.354 141.271C547.639 141.524 548.928 144.334 548.584 144.446C548.056 144.622 543.555 144.441 542.055 144.853C540.297 145.339 541.22 146.407 538.421 146.871C531.374 148.022 531.431 145.143 530.699 144.961C522.142 142.871 526.007 146.936 524.141 147.281C522.346 147.599 498.103 146.233 492.856 147.316C494.937 146.721 497.024 146.125 499.113 145.529C495.269 143.766 491.392 146.73 491.204 143.509C490.628 148.717 482.767 145.309 480.468 145.463C479.562 145.527 479.664 146.411 478.529 146.459C474.106 146.653 464.035 146.035 461.568 146.506C451.108 148.533 478.143 151.518 480.178 151.694C476.051 151.673 452.057 153.046 463.202 155.45C464.928 155.821 467.894 153.467 468.853 153.367C475.211 152.713 470.27 154.843 470.778 155.037C471.641 155.347 475.774 153.297 476.899 153.528C477.272 153.603 474.946 155.511 481.073 155.497C478.146 157.354 460.816 156.013 458.501 156.462C450.384 158.101 436.326 158.232 423.776 158.566C424.645 157.721 429.239 156.001 423.392 156.408C420.033 156.643 422.59 158.486 422.285 158.543C419.271 159.082 366.165 158.917 355.606 159.215C352.067 159.312 342.545 160.893 341.73 160.928C337.12 161.117 321.259 160.277 318.215 160.514C316.284 160.666 318.178 162.209 316.448 162.151C314.844 162.094 316.449 160.575 315.971 160.516C311.733 160.006 281.512 162.239 273.969 160.882C278.519 161.27 300.464 158.073 299.982 157.015C299.874 156.87 294.483 155.771 293.413 156.338C291.549 155.05 285.547 159.073 281.942 158.323C281.551 158.238 282.995 155.997 276.807 155.646C274.678 155.526 269.217 157.308 263.73 155.408C249.857 157.186 219.947 147.501 210.658 156.3C210.577 156.427 216.395 157.202 212.518 158.217C207.294 159.567 211.893 155.13 205.548 154.805C204.411 154.757 187.589 155.344 186.795 155.623C181.61 158.135 196.785 159.008 196.528 159.297C196.08 160.023 183.556 160.565 182.957 160.401C182.454 160.228 192.742 156.871 180.301 158.217C181.731 158.596 183.172 158.974 184.623 159.352C178.773 160.163 178.188 157.906 176.782 157.779C172.5 157.378 167.883 160.854 160.649 156.671C158.759 155.561 161.784 154.283 161.549 154.116C159.262 152.621 156.589 156.697 153.235 153.702C152.913 153.479 160.713 151.6 147.049 151.712C148.014 151.994 148.983 152.276 149.959 152.558C147.85 153.223 134.376 153.722 132.454 153.585C126.903 153.185 131.618 151.063 126.147 151.358C135.229 158.633 102.912 153.091 91.2749 153.057C87.0062 153.049 78.6332 154.466 77.3563 154.32C75.6815 154.14 76.0904 152.033 73.1241 151.59C72.3232 151.463 63.5596 153.08 56.1165 150.965C54.5433 150.558 51.2788 147.017 54.0416 146.102C58.6253 144.536 67.8008 147.333 67.4872 145.226C67.2496 142.972 55.5503 144.413 52.085 144.148C37.284 142.912 45.6587 140.441 45.3264 139.717C44.1261 137.964 36.2828 138.085 35.7869 137.931C34.3291 137.238 40.1554 135.792 40.1159 134.716C40.2914 133.312 32.1897 130.851 33.9952 130.362C36.6397 129.668 43.7052 131.716 44.2513 131.611C50.3738 130.197 41.7286 127.031 39.5963 125.458C38.9174 124.974 41.53 124.147 40.9759 124.008C32.4691 121.903 39.3348 128.576 33.601 128.176C28.615 127.818 34.9098 125.639 34.7728 125.519C34.4782 125.392 28.5108 125.326 27.4372 124.582C27.1164 124.205 42.6298 119.935 41.9113 118.084C37.0116 118.535 31.9736 118.986 26.7958 119.44C26.3297 117.024 33.6437 118.741 34.3894 118.487C35.8894 117.973 31.6208 116.784 31.7984 116.017C31.8493 115.529 36.7303 113.75 32.2536 113.072C30.8404 112.839 27.47 114.563 21.8935 112.877C41.3119 110.496 27.8862 109.25 27.1219 108.399C26.5103 107.547 35.9612 105.448 24.5023 105.903C23.9066 101.413 33.2303 101.804 37.1093 102.086C36.0549 99.8898 24.5468 100.142 23.9899 99.9715C23.4681 99.8164 25.9272 98.711 25.0219 98.3509C14.0259 94.1825 21.5269 96.0633 18.3242 93.3687C18.1766 93.1254 7.746 92.2076 15.5506 91.7447C29.653 90.9031 35.8411 93.9762 37.9263 87.2754C27.3965 84.4623 14.6564 88.8856 11.6086 88.9849C6.54092 89.1337 11.7122 87.7253 11.0926 87.3486C10.7552 87.2288 6.7571 87.3752 6.60241 87.2684C3.36323 82.1994 25.3078 87.0231 32.1102 86.0787C30.2709 85.3312 28.4919 84.5835 26.5306 83.8371C29.2103 83.7836 31.4151 83.7345 34.0023 83.6818C25.4493 82.6299 35.9654 77.6566 38.0733 77.0232C31.5451 76.484 33.4855 75.6254 27.6881 76.8383C27.7871 75.1831 40.9843 73.2039 46.2904 72.3098C27.7014 70.6095 38.3604 76.5863 22.2841 73.5134C19.4407 75.5855 26.8966 75.1232 26.3586 75.4655C24.1249 76.7003 18.9029 74.8153 12.6264 79.1288C11.6134 79.8369 16.0875 81.9505 9.58034 81.9025C9.04855 81.8964 4.63912 80.2386 4.72103 79.9574C5.24828 78.5121 9.29982 79.0164 9.46567 78.4136C9.57743 77.8433 5.10545 78.2236 5.03639 78.0664C4.90234 76.9285 9.05295 77.5771 8.22576 76.7843C6.9339 75.566 -9.57353 71.8242 11.8738 72.7773C-5.89092 74.9707 9.68658 74.789 16.5898 73.946C18.2737 73.7351 18.6465 72.6539 21.252 72.2574C24.3179 71.7467 28.43 72.229 29.9171 72.0184C31.7361 71.7846 21.3858 69.3251 36.26 69.9582C28.5575 67.4898 15.3755 70.304 7.90324 68.5888C-7.1254 65.1215 18.2608 64.1305 20.8184 63.7602C21.5386 63.6574 19.0503 62.2288 19.5283 62.1326C20.4326 61.988 34.5752 62.5396 36.131 61.3215C37.5784 60.1057 30.7177 61.4231 30.3113 60.1719C29.9693 59.3296 47.2563 57.6828 37.8618 57.1854C31.3063 56.8454 19.7005 60.3411 17.4283 56.7091C26.9186 56.3255 36.405 55.9416 45.9571 55.5578C40.7208 54.2132 35.5238 52.8681 30.1679 51.5246C45.5073 50.7546 67.0408 51.7328 68.3042 46.2442C68.4109 45.919 58.7436 42.3899 57.1199 41.7418C65.5798 40.2888 90.979 39.3972 76.4425 35.139C79.2722 35.8586 85.5357 33.481 85.4695 33.3004C84.2994 31.3407 70.2424 32.7376 72.3751 30.9401C75.0972 28.851 78.7922 31.6215 83.1438 31.3606C104.671 30.0101 98.4019 19.7736 120.115 21.2166C102.209 6.52959 166.437 20.902 189.594 21.2759C206.593 15.2032 232.671 12.9072 250.65 18.0539C252.364 18.5935 243.033 18.8845 247.285 19.8873C250.021 20.5129 253.268 20.1224 256.087 20.1211C261.541 20.12 267.664 19.86 266.816 18.8703C263.719 18.6192 258.844 20.5561 256.047 19.0291C239.117 10.0415 295.781 24.2306 313.513 16.9514C312.137 16.3922 310.763 15.8326 309.396 15.2733C313.242 15.5214 317.128 15.769 321.049 16.0164C319.485 16.5273 317.928 17.039 316.376 17.5498C320.845 17.8349 326.905 17.4192 331.166 17.855C331.862 17.9284 330.117 19.3834 331.761 19.4338C333.406 19.4826 333.017 17.5174 335.409 17.2864C338.16 17.033 350.024 18.3031 354.287 18.2336C370.292 17.9638 385.609 16.7087 401.583 17.3893C385.359 18.9856 401.891 20.3263 406.284 19.6571C407.299 19.4999 406.907 15.8449 423.303 16.6252C433.745 17.1203 424.436 22.4343 441.45 19.6658C426.832 15.7651 468.597 16.4135 474.2 16.2205C476.376 16.1452 479.636 14.1993 482.543 14.1237C484.542 14.0737 486.095 15.1079 489.076 15.029C508.173 14.5406 525.395 12.4208 537.49 16.9793C540.837 18.288 525.948 18.7991 531.896 19.5838C540.088 19.3593 548.289 19.1342 556.565 18.9087C549.745 18.3636 565.416 14.6815 568.398 16.2676C566.861 11.9272 606.184 19.7223 611.963 18.2179C613.187 17.8998 605.036 15.8198 623.771 16.6374C625.803 16.7287 625.087 18.0498 626.147 17.9178C626.783 17.8361 630.485 13.6303 634.694 15.8995C636.207 16.7289 626.77 19.5548 647.756 18.265C639.19 14.092 676.897 15.7016 683.835 16.7037C682.436 16.1455 681.037 15.5873 679.639 15.029C686.51 16.507 687.693 15.0521 689.232 15.1163C695.441 15.3765 704.037 16.7548 709.83 16.5694C716.617 16.3548 716.515 13.7124 724.433 14.6679C722.543 14.1022 720.653 13.5363 718.764 12.9706C736.723 13.2707 725.93 14.3813 738.843 13.3003C740.45 13.1583 738.189 14.6107 740.878 14.408C741.156 14.3761 740.701 13.0313 744.852 12.8415C753.533 12.4501 752.228 14.1584 755.865 14.1062C756.198 14.0944 754.985 12.8901 761.262 12.5449C781.211 11.4465 761.21 13.4747 760.437 13.6509C759.437 13.8816 766.495 18.8955 749.436 17.2515C755.176 17.7721 755.823 20.0137 756.47 20.0635C757.053 20.1035 766.903 19.6976 767.447 19.6152C772.274 18.8078 767.944 17.3127 768.877 17.0282C769.641 16.7993 781.633 18.6886 784.247 14.0452C790.116 18.2515 781.112 17.9444 771.582 18.6871C770.222 19.574 780.752 20.3274 781.304 20.3199C786.654 20.2674 794.855 14.247 791.987 12.5449C804.256 12.0994 796.881 13.989 797.685 14.251C798.899 14.6346 803.158 13.6952 803.702 13.8097C804.498 13.9799 801.796 15.0935 804.924 15.4477C805.443 15.4986 810.387 13.58 803.884 12.7456C812.536 12.931 811.76 11.3431 814.818 14.5319C820.53 8.39165 819.28 18.0873 821.637 18.4063C827.902 19.2462 825.911 14.4917 826.228 14.251C828.437 12.7372 845.765 14.2152 850.009 13.4869C848.461 16.9425 836.334 13.6535 833.675 14.3452C824.816 16.65 846.35 15.9478 840.025 20.3322C842.701 19.1192 845.377 17.9062 848.052 16.6932C853.15 19.4256 846.125 20.7035 859.505 19.5611C861.603 17.1418 850.033 20.0304 852.302 18.1185C853.642 16.9966 861.411 16.6845 861.54 16.0984C861.666 15.393 854.666 16.2931 855.731 15.2C858.047 12.8417 883.838 14.8228 864.321 16.2833C869.774 16.1917 872.779 20.8112 877.452 19.3186C880.47 18.3497 863.015 12.0953 888.865 13.0264C889.504 15.2147 878.585 13.7738 878.301 13.9422C877.914 14.1891 880.079 19.1228 880.429 19.364C881.69 20.1559 907.861 17.2546 913.574 19.6867C911.264 16.8473 933.469 18.9841 935.821 18.0888C936.447 17.8408 933.991 16.114 934.663 15.9204C938.848 14.7752 950.617 17.7911 955.978 17.8202C961.988 17.8533 961.164 16.3465 961.5 16.3461C964.141 16.405 962.077 17.4516 963.69 17.4329C966.132 17.4043 982.831 17.4496 983.719 17.227C983.963 17.1579 981.145 15.4544 984.801 15.0901C985.429 15.0288 985.134 17.0824 995.921 16.0897C1008.9 14.895 986.767 13.6294 992.086 11.4285C1000.59 14.4027 1000.18 11.3754 1002.46 11.5907C1003.26 11.6709 1009.17 14.188 1015.52 13.9614C1010.95 14.4254 1006.47 14.8883 1001.93 15.3518C1006.43 15.7586 1015.03 15.1132 1018.81 15.5855C1020.63 15.8157 1019.23 17.9476 1023.15 17.8516C1023.98 17.8195 1027.08 12.6301 1016.88 15.0465C1015.98 13.2137 1020.93 14.3637 1023.18 13.8201C1023.52 13.733 1024.75 10.6471 1027.72 12.5275C1028.43 12.9908 1021.29 22.0401 1040.46 15.35C1041.07 15.1343 1038.85 14.0344 1039.45 13.794C1039.86 13.6321 1044.83 14.0349 1045.37 13.8707C1045.92 13.694 1043.48 12.4913 1044.14 12.2432C1047.49 10.9653 1052.17 15.7854 1045.13 15.4861C1047.51 16.0633 1049.86 16.6399 1052.29 17.2166C1049.58 13.5775 1055.99 16.1466 1059.26 16.0007C1080.23 15.064 1066.07 12.8232 1069.62 11.5523C1075.32 9.51284 1071.19 15.832 1079.66 13.8585C1080.46 13.6709 1069.93 11.119 1090.31 12.4106C1087.29 12.5458 1084.27 12.681 1081.32 12.8153C1083.14 16.3446 1092.17 12.4607 1092.86 12.4036C1100.84 11.8334 1095.51 13.1673 1107.26 11.2174C1108.31 11.0425 1110.64 11.8939 1112.87 11.4337C1122.1 9.53767 1100.52 10.4712 1099.82 9.04209C1099.58 8.34113 1122.71 8.27532 1123.66 8.599C1127.14 10.0437 1113.07 9.36382 1115.84 11.1738C1116.79 11.8174 1150.17 10.1209 1156.82 10.7639C1164.65 11.5123 1168.33 16.282 1168.13 10.879C1170.56 16.158 1172.31 12.5196 1173.29 12.5449C1185.2 12.9059 1185.11 12.9616 1195.45 12.3391C1197.72 12.2038 1199.7 13.7902 1200.49 13.5096C1200.95 13.3403 1200 11.6293 1202.26 11.0726C1205.42 10.3106 1224.3 11.8692 1225.89 12.8031C1227.37 13.7379 1217.78 13.3083 1219.57 14.8528C1226.52 14.9325 1233.09 14.47 1239.93 14.5563C1242.76 14.5969 1241.36 15.7102 1242.58 15.7181C1243.11 15.7256 1252.79 14.6476 1252.43 14.2475C1251.34 13.3217 1221.12 14.3001 1229 12.292C1253.65 6.10725 1289.51 12.0609 1316.75 12.4193C1301.18 14.9115 1283.27 13.0736 1267.24 13.4782C1265.02 13.5312 1257.38 13.3246 1258.38 14.8651C1272.31 15.104 1289.68 14.0866 1302.94 14.9348C1303.36 14.9643 1301.89 16.3767 1303.48 16.5781C1306.32 16.9554 1316.2 14.5834 1317.84 15.1442C1318.13 15.2773 1312.63 17.1835 1314.39 18.3295C1318.93 21.2713 1319.68 14.6222 1323.4 14.654C1331.58 14.7351 1342.7 19.035 1350.46 15.5506C1355.48 13.3226 1336.11 14.482 1337.38 12.6967C1350.67 10.7489 1363.67 12.4741 1376.14 12.0809C1376.35 12.0722 1374.41 10.7126 1377.12 10.4813C1381.84 10.0793 1383.11 12.0258 1385.47 12.3077C1388.11 12.6056 1397.06 12.1973 1398.26 12.8956C1398.42 12.9872 1396.75 14.9576 1396.47 15.0203C1392.64 15.8786 1391.08 13.3695 1390.72 13.3422C1389.37 13.266 1388.1 14.2529 1386.86 14.2126C1384.77 14.1457 1383.72 13.2636 1381.13 13.22C1379.35 13.1868 1381.17 14.884 1379.45 14.8302C1378.83 14.803 1371.73 10.9684 1371.3 14.9872C1371.02 16.2661 1427.88 17.0742 1433.27 15.9641C1428.57 15.5946 1424.4 15.2195 1419.95 14.8441C1429.36 15.5003 1440.32 12.5719 1441.34 17.1032C1477.38 16.9149 1514.17 16.6545 1549.5 16.1821C1555.68 16.432 1552.77 19.5621 1562.92 18.4063C1560.21 17.5067 1557.42 16.6067 1554.54 15.7076C1560.17 16.2622 1583.29 16.9282 1586.8 16.1612C1587.29 16.061 1587.44 13.2969 1592.99 12.8607C1597.76 12.4763 1598.85 14.5025 1601.45 14.7953C1603.55 15.0378 1605.82 14.3964 1606.44 14.483C1606.92 14.5535 1607.35 15.8043 1608.47 15.9745C1611.99 16.4942 1608.58 13.0824 1612.77 16.9846C1612 17.1792 1611.19 17.3748 1610.35 17.5707C1614.69 17.9628 1620.39 19.5142 1614.73 20.7351C1613.77 20.9425 1614.37 19.684 1613.62 19.7233C1581.17 21.34 1608.62 22.6477 1618.13 20.1943C1619.53 21.0297 1623.9 20.9544 1626.83 20.7264C1629.88 20.4942 1631.41 20.1394 1631.63 20.3008C1632.18 20.7725 1631.54 22.3188 1633.7 23.3727C1635.39 23.6759 1649.86 21.8947 1646.44 23.4477C1643.03 24.9874 1638.05 24.4478 1634.51 25.03C1639.72 28.8963 1648.62 21.252 1653.53 20.9828C1661.19 20.597 1641.23 26.049 1657.99 24.3078C1670.95 22.9745 1657.57 22.0602 1661.93 20.3618C1664.36 19.4033 1680.46 20.2787 1678.21 16.7909C1683.05 15.7821 1681.09 18.0264 1681.78 18.0836C1682.44 18.1244 1691.85 15.8363 1695.47 16.1978C1695.91 16.2438 1695.62 18.2377 1696.1 18.34C1697.02 18.4991 1706.41 16.99 1706.73 16.7892C1706.93 16.6513 1703.84 15.3023 1704.58 14.7988C1705.46 14.215 1714.92 13.5159 1715.21 12.9968C1715.58 12.212 1704.36 14.0035 1705.37 11.9745C1710.89 11.8052 1718.92 9.61246 1721.74 7.75992C1721.08 8.27222 1715.96 8.91642 1714.1 8.9758C1713.66 6.22102 1724.76 5.00768 1721.97 7.53663C1723.85 6.1373 1721.93 5.72168 1722.77 4.50478C1722.99 4.19588 1726.41 3.75719 1726.85 3.2261C1726.9 3.12382 1722.88 2.5151 1723.34 1.89683C1724.17 0.774053 1734.7 -0.147987 1735.67 0.0198001ZM249.271 160.46C244.462 159.553 248.009 155.721 252.023 157.268C252.478 157.45 255.824 161.679 249.271 160.46ZM199.434 159.079C199.625 159.027 203.753 159.094 203.906 159.152C207.66 160.647 195.227 160.439 199.434 159.079ZM232.439 159.093C233.043 157.901 237.726 158.432 239.828 158.698C239.782 159.782 234.541 158.942 232.439 159.093ZM151.937 158.255C151.838 157.311 158.972 157.186 159.395 157.322C161.879 158.196 154.627 159.405 151.937 158.255ZM356.473 157.706C356.573 156.772 339.896 156.966 338.58 158.206C341.482 157.66 356.221 158.546 356.473 157.706ZM436.257 155.014C432.043 151.955 423.998 158.298 430.545 157.61C431.172 157.541 436.486 155.163 436.257 155.014ZM439.934 155.075C434.772 155.284 438.637 158.707 441.808 157.257C442.008 157.165 440.274 155.064 439.934 155.075ZM293.413 156.338C292.339 156.906 295.248 157.613 293.413 156.338ZM400.182 156.021C399.733 155.863 393.8 156.161 394.007 156.982C396.933 158.036 402.178 156.733 400.182 156.021ZM310.338 157.184C316.159 155.446 304.224 155.615 304.364 156.821C304.409 157.277 310.087 157.253 310.338 157.184ZM486.915 155.326C487.217 155.104 482.624 149.925 493.211 153.275C494.066 153.544 491.778 155.879 492.673 155.909C487.804 156.385 482.776 156.633 482.274 156.321C479.929 154.841 486.772 155.414 486.915 155.326ZM446.603 155.182C446.074 155.021 454.044 149.853 442.339 153.781C448.675 154.327 442.032 154.94 442.149 155.386C442.444 156.666 453.032 155.341 455.44 155.874C456.549 154.424 447.704 155.182 446.603 155.182ZM498.447 153.367C505.773 154.031 500.427 155.077 493.992 155.769C496.023 155.206 495.993 153.147 498.447 153.367ZM532.39 151.028C533.374 150.165 539.821 150.565 541.256 150.904C541.507 150.968 540.508 153.222 543.363 153.029C545.654 152.869 542.137 150.602 546.631 150.93C551.177 151.26 545.18 152.952 545.581 153.066C546.114 153.214 553.095 152.12 552.931 153.458C552.801 154.45 545.255 153.847 543.413 154.074C541.052 154.365 543.986 155.989 540.012 155.67C537.517 155.47 538.787 152.557 538.256 152.415C534.908 151.565 533.252 151.587 532.39 151.028ZM605.47 152.455C606.886 151.097 611.487 151.487 614.568 151.539C613.174 152.897 608.613 152.506 605.47 152.455ZM502.517 151.803C504.544 150.192 510.999 151.269 514.411 151.478C512.381 152.807 505.523 152.275 502.517 151.803ZM481.518 151.738C481.182 150.789 489.72 149.799 490.412 152.146C488.562 151.992 481.752 152.332 481.518 151.738ZM140.986 151.077C137.799 150.999 131.56 150.502 133.532 152.019C133.79 152.147 140.964 151.937 140.986 151.077ZM124.781 149.721C124.335 149.574 114.759 149.923 115.758 150.622C118.077 151.94 126.148 150.231 124.781 149.721ZM608.727 150.878C607.395 150.406 614.207 149.478 616.306 149.939C616.174 150.954 609.614 151.184 608.727 150.878ZM142.642 150.009C140.996 148.12 135.915 149.368 132.425 149.299C133.857 151.003 139.223 149.617 142.642 150.009ZM469.961 149.639C465.782 151.005 466.517 146.537 470.212 148.035C470.355 148.097 470.123 149.586 469.961 149.639ZM107.1 148.342C104.618 146.474 91.7869 147.985 95.0233 149.205C95.3729 149.365 105.551 148.283 107.1 148.342ZM566.613 147.494C570.552 147.918 566.764 149.652 564.14 149.064C563.923 148.999 563.148 147.119 566.613 147.494ZM138.642 147.239C137.429 145.546 131.759 146.915 128.3 146.54C129.332 147.876 136.099 147.439 138.642 147.239ZM580.657 143.954C581.469 143.893 582.606 145.466 582.89 145.482C583.542 145.499 598.499 144.757 592.852 146.841C591.859 147.191 570.484 146.598 567.556 146.423C567.37 146.079 578.669 146.813 580.657 143.954ZM516.837 145.577C521.908 144.045 511.275 143.678 508.008 145.16C509.507 145.052 516.48 145.676 516.837 145.577ZM1243.76 144.136C1241.65 141.771 1248.25 141.312 1252.59 142.248C1253.57 142.459 1257.27 144.835 1253.2 145.355C1253.19 142.46 1246.78 141.428 1243.76 144.136ZM665.111 143.741C665.284 143.689 669.383 143.753 669.565 143.811C673.313 145.305 660.916 145.104 665.111 143.741ZM500.88 143.161C500.477 141.829 493.094 143.503 494.698 144.12C495.71 144.512 501.115 143.988 500.88 143.161ZM763.86 143.211C766.976 142.947 770.106 142.325 771.217 143.858C769.213 143.641 763.535 144.289 763.86 143.211ZM1320.35 142.489C1318.3 142.334 1313.16 142.343 1312.72 143.188C1312.03 144.247 1319.48 143.796 1320.35 142.489ZM529.305 142.555C528.35 142.024 504.125 141.909 517.938 143.45C518.73 143.537 532.076 144.166 529.305 142.555ZM1356.58 141.32C1354.33 141.169 1352.91 143.261 1353.31 143.433C1355.1 144.202 1359.19 142.469 1356.58 141.32ZM1426.97 143.192C1405.33 144.758 1402.49 139.316 1422.22 141.193C1422.62 141.232 1428.24 142.617 1426.97 143.192ZM1195.42 141.308C1199.56 141.282 1195.17 143.752 1192.91 142.874C1192.08 142.547 1194.38 141.317 1195.42 141.308ZM1174.03 141.397C1160.2 136.098 1186.29 139.361 1193.55 138.571C1186.51 140.899 1177.22 140.661 1189.95 142.826C1171.49 143.473 1179.06 141.219 1178.32 141.046C1177.44 140.854 1174.63 141.622 1174.03 141.397ZM731.296 141.055C733.206 139.814 746.137 140.683 749.081 141.882C746.359 143.696 728.92 142.605 731.296 141.055ZM900.06 141.889C899.342 139.875 908.77 141.093 910.582 141.257C909.941 142.162 900.595 143.341 900.06 141.889ZM1228.11 142.335C1214.19 143.96 1216.85 136.253 1235.57 138.632C1234.83 139.095 1250.99 138.751 1230.18 140.69C1229.44 140.759 1228.65 142.669 1228.11 142.335ZM1209.8 140.966C1210.58 140.798 1216.51 141.84 1218.61 141.636C1215.77 143.53 1204.65 142.105 1209.8 140.966ZM81.2624 141.948C81.7144 141.132 76.8249 140.422 75.5287 140.779C73.7597 141.339 80.5071 143.253 81.2624 141.948ZM867.289 141.102C867.53 141.039 872.966 141.131 873.23 141.202C877.755 142.712 862.336 142.46 867.289 141.102ZM1384.98 140.141C1383.55 139.765 1379.83 140.07 1377.81 139.963C1384.29 141.851 1377.11 140.036 1377.5 142.112C1381.85 142.128 1392.3 142.086 1384.98 140.141ZM1371.83 139.349C1375.82 139.534 1365.88 145.578 1371.83 139.349ZM1368.64 139.85C1367.8 139.541 1344.62 138.634 1346.04 141.182C1348.25 140.853 1374.24 141.83 1368.64 139.85ZM1301.33 139.525C1300.7 139.354 1282.77 139.449 1289.04 140.983C1290.99 141.446 1307.09 141.044 1301.33 139.525ZM528.409 138.761C525.567 138.024 518.536 139.509 520.701 140.247C522.023 140.702 531.678 139.607 528.409 138.761ZM1392.85 138.519C1391.36 138.525 1385.52 138.88 1385.39 139.227C1385.08 140.424 1392.24 139.669 1392.85 138.519ZM713.754 138.613C711.203 137.291 704.276 139.04 706.11 139.553C707.385 139.904 716.305 139.944 713.754 138.613ZM475.999 139.492C477.311 138.678 473.444 137.396 471.824 137.816C471.391 137.926 474.303 140.541 475.999 139.492ZM694.521 137.212C692.952 137.023 691.043 139.207 691.228 139.302C692.844 140.079 697.189 138.396 694.521 137.212ZM485.001 139.103C488.006 138.182 480.91 135.493 477.805 137.645C476.207 138.746 484.481 139.257 485.001 139.103ZM1362.69 134.927C1361.59 134.969 1362.8 133.048 1359.15 133.81C1357.41 134.172 1362.92 136.117 1361.73 136.525C1360.98 136.779 1357.01 136.074 1355.77 136.722C1355.43 136.927 1359.57 138.769 1360.71 138.672C1362.34 138.54 1360.67 137.072 1362.46 137.038C1368.22 136.929 1374 137.915 1379.61 137.814C1380.12 137.802 1376.09 136.802 1380.46 136.757C1381.13 136.748 1385.27 138.262 1390.34 137.959C1401.88 132.934 1409.99 137.593 1424.96 135.616C1424.44 135.166 1413.06 134.106 1412.61 134.067C1400.52 133.445 1378.66 133.662 1365.66 133.824C1362.46 133.863 1364.07 134.87 1362.69 134.927ZM1238.57 138.662C1239.98 137.308 1244.58 137.651 1247.66 137.723C1247.02 138.724 1240.79 138.541 1238.57 138.662ZM809.647 136.935C808.891 136.702 802.115 137.708 801.967 138.417C805.915 139.127 813.085 138.018 809.647 136.935ZM1060.62 137.934C1064.29 137.384 1068.77 137.934 1072.61 137.857C1071.08 138.699 1062.24 139.014 1060.62 137.934ZM679.492 137.768C677.425 136.416 671.794 136.568 673.525 137.932C673.709 138.061 678.705 138.787 679.492 137.768ZM1159.25 138.065C1154.78 136.266 1172.5 133.929 1176.23 135.078C1176.59 136.216 1159.92 138.311 1159.25 138.065ZM917.387 137.024C923.776 137.738 928.881 135.558 935.025 136.624C947.379 138.746 887.765 138.396 922.182 134.944C920.585 135.637 918.985 136.33 917.387 137.024ZM823.153 136.615C821.766 136.24 817.439 136.65 817.025 137.58C819.197 138.014 826.373 137.493 823.153 136.615ZM1185.09 135.761C1186.71 135.335 1190.59 136.611 1189.28 137.428C1187.61 138.474 1184.67 135.883 1185.09 135.761ZM718.388 137.599C723.244 135.781 713.15 136.284 709.615 136.378C709.452 137.403 718.047 137.722 718.388 137.599ZM669.185 136.799C667.332 136.706 663.253 135.854 661.839 136.132C657.859 136.92 667.843 138.169 669.185 136.799ZM625.24 131.209C634.343 136.661 633.258 132.407 634.031 132.423C635.708 132.469 639.656 133.928 642.81 133.655C639.21 134.31 635.615 134.964 632.027 135.619C634.922 135.993 659.716 137.808 660.194 136.907C660.886 135.623 653.13 136.093 652.902 135.982C652.568 135.818 651.224 132.286 650.501 132.157C649.365 131.951 628.562 132.063 625.24 131.209ZM1072.84 136.5C1075.03 135.922 1079.06 136.473 1081.79 136.38C1081.37 137.288 1073.84 137.408 1072.84 136.5ZM1559.88 137.048C1560.23 135.579 1561.43 134.477 1566.17 134.904C1564.81 135.672 1561.85 136.376 1559.88 137.048ZM609.555 136.324C606.988 134.707 618.241 135.23 618.614 135.41C620.575 136.504 611.646 137.644 609.555 136.324ZM1607.38 134.419C1614.16 131.457 1616.1 136.008 1615.52 136.181C1608 138.354 1612.57 134.773 1612.32 134.62C1610.79 134.006 1609.03 134.363 1607.38 134.419ZM495.282 134.745C489.487 131.577 492.318 135.619 497.393 136.614C498.867 135.156 496.233 135.26 495.282 134.745ZM798.24 133.514C785.449 129.714 792.612 136.795 794.832 136.146C795.156 136.045 798.552 133.603 798.24 133.514ZM705.293 135.227C704.868 135.135 696.189 134.702 696.295 135.611C698.609 136.283 710.216 136.38 705.293 135.227ZM1494.26 135.167C1492.57 135.271 1487.25 134.793 1486.83 135.373C1486.35 136.131 1494 136.466 1494.26 135.167ZM771.833 134.372C773.879 134.775 774.512 136.175 775.442 135.832C775.759 135.714 775.76 134.372 776.843 134.014C775.173 134.134 773.503 134.253 771.833 134.372ZM1333.72 132.949C1333.01 132.754 1323.33 134.246 1327.43 135.556C1330.28 136.466 1330.62 134.533 1331.27 134.519C1332.05 134.518 1347.53 136.677 1333.72 132.949ZM477.121 132.502C475.575 131.936 459.407 132.712 461.919 134.393C462.844 134.992 472.126 133.38 472.519 133.495C473.169 133.664 470.296 135.573 475.204 135.157C474.892 134.521 477.66 132.691 477.121 132.502ZM1575.58 134.88C1571.61 134.007 1580.61 133.442 1583.52 133.789C1583.67 134.716 1576.08 135.01 1575.58 134.88ZM490.509 132.725C484.794 130.327 483.705 134.851 487.925 134.827C489.577 134.821 491.325 133.071 490.509 132.725ZM1441.03 133.099C1437.46 132.747 1438.3 134.619 1438.53 134.677C1441.26 135.247 1445.05 133.496 1441.03 133.099ZM1655.73 133.423C1662.29 134.579 1641.08 135.491 1647.62 133.77C1648 133.694 1655.23 133.389 1655.73 133.423ZM778.197 133.91C780.907 134.024 789.022 133.298 786.311 133.322C783.606 133.518 780.901 133.714 778.197 133.91ZM988.653 134.241C988.118 134.259 987.584 134.277 987.058 134.294C987.451 134.226 987.971 134.2 988.653 134.241ZM1700.86 129.193C1701.84 129.24 1702.75 129.458 1703.23 129.95C1688.84 130.61 1674.62 135.281 1659.99 133.741C1655.72 133.096 1662.51 132.475 1672.31 131.659C1678.72 131.143 1689.45 127.779 1695.68 130.131C1697 129.239 1699.32 129.127 1700.86 129.193ZM1558.53 130.726C1564.51 130.7 1562.85 127.674 1566.74 128.964C1567.48 129.183 1569.91 135.506 1563.32 133.278C1562.1 132.878 1566.55 131.251 1558.53 130.726ZM513.437 132.91C511.408 132.5 506.042 131.921 502.435 133.454C507.344 133.54 512.279 133.626 517.235 133.711C517.925 132.616 512.143 132.92 513.437 132.91ZM1534.3 132.146C1538.43 131.995 1542.43 132.284 1546.44 132.723C1545.66 133.774 1534.78 132.907 1534.3 132.146ZM1491.72 131.904C1492.96 130.91 1486.32 130.769 1484.34 131.321C1483.83 132.518 1491.58 132.043 1491.72 131.904ZM1555.84 130.58C1556.87 130.607 1557.76 130.676 1558.53 130.726C1557.77 130.729 1556.88 130.687 1555.84 130.58ZM1720.57 125.964C1721.01 126.296 1715.38 129.844 1711.83 129.599C1705.11 129.12 1720.21 125.73 1720.57 125.964ZM1545.71 125.175C1543.19 124.611 1535.8 126.345 1534.32 127.809C1526.4 121.333 1475.27 127.123 1509.48 128.788C1510.73 128.851 1508.88 127.601 1514.22 127.724C1514.57 127.735 1514.83 128.779 1515.91 128.809C1518.39 128.873 1531.44 129.269 1534.05 128.366C1534.9 132.462 1545.99 125.24 1545.71 125.175ZM1534.32 127.809C1534.61 128.049 1534.48 128.211 1534.05 128.366C1534.01 128.183 1534.11 128.007 1534.32 127.809ZM1553.19 125.728C1552.99 125.655 1546.08 125.234 1547.13 126.51C1548.74 128.381 1555.16 126.39 1553.19 125.728ZM1624.41 126.325C1621.49 126.133 1624.4 123.324 1627.91 124.626C1629 125.041 1626.15 126.422 1624.41 126.325ZM1668.63 121.779C1666.55 123.606 1664.66 123.984 1657.69 124.092C1667.85 122.852 1657.67 122.225 1668.63 121.779ZM1694.65 118.142C1696.95 117.872 1699.54 117.722 1700.62 118.639C1699.35 118.666 1690.27 118.656 1694.65 118.142ZM1748.24 111.223C1746.03 113.002 1739.38 113.803 1735 114.096C1733.93 112.221 1745.72 111.987 1748.24 111.223ZM1752.88 112.444C1749.74 110.366 1760.12 110.586 1757.12 112.613C1756.98 112.686 1753.06 112.515 1752.88 112.444ZM39.2415 100.069C38.0035 99.5688 37.245 97.8972 34.4216 98.8009C37.4223 100.015 39.8774 101.234 42.7749 102.449C44.8553 99.5904 40.5503 100.621 39.2415 100.069ZM1773.87 96.4093C1769.15 95.6135 1778.48 94.0917 1779.04 94.3561C1780.71 95.2459 1775.98 96.7629 1773.87 96.4093ZM28.4621 89.7839C28.7903 89.7076 26.7352 85.3639 31.6193 88.2366C35.1085 90.1751 16.8018 92.2496 13.3968 90.3439C17.2492 89.4112 24.9492 90.3746 28.4621 89.7839ZM17.8476 71.8021C14.5393 70.9823 21.9556 70.3716 23.9504 70.8427C24.2554 71.6527 18.3075 71.9217 17.8476 71.8021ZM0.00147626 52.8923C0.434182 51.6328 13.9424 52.3981 16.4823 52.3655C15.0313 53.5454 -0.172187 54.3336 0.00147626 52.8923ZM46.3943 42.621C42.5321 41.7073 51.4884 41.2432 54.0345 41.6755C54.3419 42.427 46.6489 42.6996 46.3943 42.621ZM1700.26 39.9328C1695.23 37.4918 1695.32 44.0725 1700.08 42.157C1700.31 42.0625 1700.49 40.0548 1700.26 39.9328ZM1647.9 41.4417C1645.74 41.4678 1641.36 41.3373 1641.09 42.5058C1642.55 42.1647 1647.52 42.7004 1647.9 41.4417ZM1683.76 39.3746C1681.65 39.74 1675.9 39.914 1674.79 40.2869C1670.87 41.5838 1682.67 41.5723 1683.76 39.3746ZM1605.16 39.3135C1598.1 37.5724 1603.18 41.7329 1606.7 40.812C1606.83 40.7408 1605.33 39.3594 1605.16 39.3135ZM1628.54 38.1988C1626.17 36.5622 1625.16 40.9794 1628.24 40.9062C1629.21 40.8714 1628.8 38.3872 1628.54 38.1988ZM1642.57 38.6175C1639.76 37.3654 1641.21 41.7807 1643.15 40.1979C1643.23 40.1283 1642.7 38.6906 1642.57 38.6175ZM1694.21 33.3859C1688.4 31.9008 1693.71 38.6401 1694.44 38.8477C1697.43 39.6511 1704.31 35.9096 1705.67 35.0274C1693.76 37.5803 1696.94 34.092 1694.21 33.3859ZM1540.98 37.7958C1540.78 37.7277 1535.4 37.7135 1535.14 37.7801C1530.33 39.2001 1545.5 39.2467 1540.98 37.7958ZM59.4098 35.8141C57.2713 36.4177 57.1523 30.8585 54.9303 30.8773C59.7189 31.179 56.8106 32.4621 57.0303 32.4997C67.6356 34.2563 64.4791 31.4353 66.1362 31.0849C69.3882 30.3551 69.2076 33.5633 74.3712 32.4456C65.6588 34.4777 74.2344 33.5733 74.4608 34.7779C75.6904 39.7965 61.7206 32.5319 56.758 33.6283C56.0843 33.7816 61.1277 35.3431 59.4098 35.8141ZM76.4425 35.139C76.1344 35.0488 76.1313 35.0599 76.4425 35.139ZM1667.92 24.4491C1662.95 25.2312 1657.99 26.0211 1653.09 26.811C1660.23 30.2549 1649.38 30.3705 1644.12 27.4966C1643.27 28.421 1642.48 29.3883 1641.84 30.4744C1637.52 25.5809 1641.18 33.7659 1636.89 29.7644C1637.22 36.0144 1650.84 29.1766 1655.26 32.9306C1649.66 33.5268 1647.53 34.0059 1647.32 34.3244C1646.1 36.221 1655.06 30.9848 1652.87 30.436C1668.8 31.3522 1657.06 28.8577 1658.73 27.5786C1661.3 25.6193 1671.14 24.0413 1667.92 24.4491ZM1636.11 31.9607C1632.82 30.6303 1636.05 35.5522 1637.58 34.04C1637.65 33.9519 1636.26 32.0212 1636.11 31.9607ZM1671.57 30.6872C1671.01 30.6554 1660.46 32.6425 1661.61 33.3737C1663.33 33.7032 1678.46 31.0796 1671.57 30.6872ZM1684.36 26.6488C1680.48 26.3473 1677.63 29.9067 1685.2 29.3056C1682.83 30.0908 1680.49 30.8756 1678.14 31.6641C1688.69 32.1194 1685.81 28.0561 1688.68 27.8786C1692.72 27.6384 1694.18 31.1163 1693.97 32.2904C1696.05 29.7887 1709.65 28.1065 1717.33 26.7971C1709.97 26.711 1697.95 26.5239 1690.83 26.811C1688.8 26.8897 1687.41 28.0633 1685.69 28.1665C1685.02 28.205 1685.03 26.5662 1684.36 26.6488ZM1598.6 30.6732C1596.58 30.9179 1590.46 30.1359 1590.33 31.2716C1592.33 31.0406 1598.54 31.8122 1598.6 30.6732ZM66.3691 29.726C64.8901 27.8048 72.9674 28.1974 74.0988 28.5258C74.6782 28.6656 68.1424 32.2261 66.3691 29.726ZM1719.65 23.8647C1715.67 24.3111 1709.12 24.2314 1707.72 26.0417C1711.7 25.579 1718.23 25.668 1719.65 23.8647ZM1679.96 22.6802C1678.83 22.5502 1669.72 23.4643 1669.65 24.8136C1674.75 25.8922 1682.52 22.9849 1679.96 22.6802ZM924.206 24.9253C928.223 23.6081 918.727 22.1973 917.014 23.2088C916.166 23.7128 922.442 25.5034 924.206 24.9253ZM857.781 20.0914C852.956 20.3967 848.068 25.7742 854.054 24.8904C854.693 24.7898 858.364 20.8256 857.781 20.0914ZM1724.48 18.4883C1714.38 14.9906 1706.03 21.335 1704.81 21.3701C1703.59 21.3963 1704.45 19.2652 1704.17 19.2419C1703.49 19.2022 1691.03 20.8758 1690.51 21.0875C1690.14 21.2485 1693.77 23.6586 1691.64 24.8206C1695.86 22.6556 1719.24 20.9169 1720.28 20.4996C1721.71 19.8917 1722.94 18.6644 1724.48 18.4883ZM1595.64 23.2245C1587.06 24.1576 1603.84 25.2998 1601.41 23.6379C1601.21 23.5413 1596.53 23.1285 1595.64 23.2245ZM1631.37 21.391C1631.1 21.2409 1628.15 21.6655 1622.78 22.2388C1617.64 22.8061 1610.68 23.4757 1609.23 23.8054C1610.77 24.1667 1617.79 24.0753 1623.05 23.8141C1623.17 23.8083 1634.67 23.1468 1631.37 21.391ZM878.423 22.0382C873.891 23.4085 883.754 24.4021 882.784 22.6575C882.656 22.5637 878.618 21.983 878.423 22.0382ZM982.826 22.0818C982.314 21.9637 976.447 22.2469 976.709 23.057C978.885 23.5237 986.149 22.8973 982.826 22.0818ZM1701.56 21.1364C1705.25 21.8912 1696.56 23.0819 1694.24 22.9262C1689.04 22.5686 1701.08 21.0462 1701.56 21.1364ZM899.297 21.8306C895.232 19.7679 888.43 20.0402 890.223 22.7692C897.737 22.5133 889.199 20.3108 899.297 21.8306ZM1660.71 16.9183C1657.98 19.8415 1653.74 18.4436 1648.43 19.275C1647.01 19.5006 1647.94 20.4383 1647.79 20.4682C1645.31 20.8457 1646.54 19.4484 1644.99 19.6344C1643.55 19.8143 1632.13 22.6638 1632.32 20.7997C1632.58 19.4398 1638.3 19.3899 1639.09 19.2925C1647.62 18.23 1658.13 17.2489 1660.71 16.9183ZM1175.62 19.6291C1170.5 17.7797 1170.96 21.3156 1174.66 21.2253C1175.96 21.1936 1175.78 19.6885 1175.62 19.6291ZM1596.12 20.4508C1595.71 20.3855 1586.67 20.1233 1586.58 21.0422C1588.01 21.3614 1601.02 21.207 1596.12 20.4508ZM1036.77 20.4892C1036.61 19.364 1029.92 19.9425 1030.84 20.6584C1031.15 20.8989 1036.91 21.4 1036.77 20.4892ZM1177.2 19.1076C1174.25 19.7778 1179.49 22.2813 1182.99 19.7408C1181.17 19.9655 1177.51 19.0429 1177.2 19.1076ZM1142.81 19.6815C1140.23 19.9512 1133.43 19.5637 1132.27 20.5903C1135.48 20.3464 1143.76 21.6928 1142.81 19.6815ZM1566.92 20.5711C1572.2 18.9142 1555.14 19.0903 1554.12 19.4966C1554.92 20.4221 1566.3 20.7396 1566.92 20.5711ZM351.864 18.6941C349.959 20.5628 364.661 20.8963 360.737 19.3884C359.859 19.0539 353.692 18.6919 351.864 18.6941ZM1589.37 19.4163C1595.6 22.3491 1610.26 15.741 1600.14 17.1834C1599.94 17.2195 1602.3 18.8951 1598.11 18.8337C1597.73 18.8225 1596.99 16.8637 1591.7 17.7818C1590.64 17.9697 1589.25 19.3383 1589.37 19.4163ZM838.62 18.6959C841.517 16.7502 826.266 17.3248 825.063 19.5559C827.086 19.8449 838.262 18.9168 838.62 18.6959ZM1193.89 16.6618C1191.77 16.5256 1190.27 19.1797 1190.52 19.3012C1192.87 20.4561 1196.04 17.6642 1193.89 16.6618ZM417.487 19.2576C419.422 18.7288 411.509 17.464 411.581 18.8965C411.605 19.3557 417.224 19.3263 417.487 19.2576ZM1632.68 17.0753C1633.3 17.1551 1633.97 17.3649 1634.16 17.6911C1635.12 19.2495 1630.66 18.5685 1630.51 18.729C1630.53 17.2568 1631.45 16.9166 1632.68 17.0753ZM1338.19 17.0212C1334.87 18.1875 1345.67 19.5573 1342.62 17.623C1342.47 17.5444 1338.37 16.9563 1338.19 17.0212ZM908.811 13.3491C910.217 13.0043 911.417 9.24069 918.928 11.0709C921.068 11.0501 918.835 12.6443 919.114 12.8642C925.985 18.8407 916.118 12.3712 915 12.3722C914.439 12.3754 905.849 14.489 906.371 14.9296C906.45 14.9758 909.016 14.5273 909.456 14.7063C911.112 15.3865 910.369 16.5653 910.599 16.62C911.361 16.7556 924.983 14.6282 927.037 16.3513C927.716 16.9071 905.273 18.4197 904.371 18.1359C903.81 17.9531 903.912 14.7064 903.325 14.3906C903.235 14.3443 885.27 16.1111 885.493 14.8633C885.618 14.4161 891.256 14.6198 891.463 14.6958C893.836 15.5467 905.455 11.7182 905.36 11.6779C910.865 10.6255 904.685 14.3613 908.811 13.3491ZM1384.1 17.0543C1381.68 16.7096 1371.04 16.9737 1375.25 18.012C1375.93 18.171 1384 18.0844 1384.1 17.0543ZM1251.91 16.6636C1252.05 14.9891 1241.79 16.0539 1245.93 17.3928C1246.96 17.7272 1251.79 17.224 1251.91 16.6636ZM497.21 16.2868C490.462 17.5597 510.861 17.9089 504.582 16.4159C504.262 16.3433 497.552 16.2248 497.21 16.2868ZM334.47 15.9763C337.127 14.2644 348.056 16.2525 346.167 16.9654C345.707 17.1197 333.663 16.9118 334.47 15.9763ZM47.7023 15.6692C47.8398 15.6168 52.2059 15.6812 52.2319 15.7408C55.9829 17.2351 43.4615 17.0299 47.7023 15.6692ZM525.61 15.7006C523.966 15.7801 516.679 15.2411 516.608 15.8071C516.498 16.7195 524.832 17.2689 525.61 15.7006ZM1683.93 14.1324C1685.71 12.195 1688.42 13.9225 1688.76 13.9074C1692.13 13.7575 1698.68 12.5847 1697.99 14.319C1691.93 14.3708 1680.4 17.9812 1683.93 14.1324ZM1366.85 14.1498C1366.18 13.9823 1352.73 13.2451 1352.15 13.4207C1345.26 15.5081 1374.71 16.5308 1366.85 14.1498ZM925.905 14.1638C926.787 13.9825 938.477 9.10218 933.638 12.128C943.224 11.1982 954.578 12.7341 965.686 12.613C968.509 12.5847 965.178 10.5254 968.9 11.0604C971.882 11.4896 975.231 13.3964 973.642 13.8446C973.249 13.9548 967.177 12.7544 964.159 12.913C955.246 13.3842 957.569 15.1534 957.05 15.207C956.472 15.2627 950.794 14.059 947.714 14.1446C939.954 14.3653 936.508 15.5 925.905 14.1638ZM1419.95 14.8441C1418.68 14.7374 1418.68 14.7556 1419.95 14.8441ZM1400.23 14.0033C1399.01 13.8001 1399.29 8.17646 1404.31 10.2702C1404.97 10.5417 1402.07 12.0691 1402.61 12.4019C1402.85 12.5925 1413.81 13.2208 1414.35 13.0822C1414.88 12.9252 1414.13 11.1345 1414.67 10.9243C1415.3 10.6911 1422.08 12.1699 1425.48 12.135C1431.86 12.0669 1432.75 10.5539 1433.23 10.5406C1434.83 10.5057 1437.58 11.5271 1440.74 11.4756C1456.8 11.2119 1480.95 9.52569 1494 12.4577C1463.04 9.61634 1431.46 13.5519 1400.23 14.0033ZM1547.56 13.5428C1544.57 12.5858 1553.22 11.3676 1556.16 12.4926C1557.58 14.1883 1548.01 13.6535 1547.56 13.5428ZM1623.27 11.3971C1622.56 12.9228 1617.77 12.7856 1614.76 13.1904C1614.18 11.3377 1622.16 11.8399 1623.27 11.3971ZM1060.52 11.664C1060.89 11.6022 1066.28 11.9605 1066.45 12.053C1070.1 13.9819 1052.35 13.0264 1060.52 11.664ZM1704.54 9.3212C1710.83 10.5132 1686.39 12.9596 1684.84 12.8293C1685.95 11.6964 1703.69 9.14881 1704.54 9.3212ZM1296.02 11.0622C1296.33 9.9296 1302.65 10.8544 1304.88 10.6609C1304.59 11.796 1298.31 10.8684 1296.02 11.0622ZM1684.36 11.2261C1682.97 10.5307 1684.04 7.82753 1686.79 8.79438C1687.96 9.21283 1687.02 10.8689 1684.36 11.2261ZM1134.76 8.76472C1174.76 6.69013 1166.04 11.246 1132.4 9.8079C1132.3 8.47003 1132.22 8.89519 1134.76 8.76472ZM1063.82 9.84453C1062.8 7.82606 1074.89 8.52759 1075.83 8.96882C1079.63 10.7429 1064.8 9.38742 1063.82 9.84453ZM1194.99 9.6509C1194.11 7.57317 1203.76 9.0469 1207.03 8.74728C1207.92 10.8249 1198.33 9.35093 1194.99 9.6509ZM1186.13 8.45595C1184.76 9.80832 1180.23 9.46282 1177.16 9.38923C1177.67 8.45386 1183.96 8.72033 1186.13 8.45595ZM1688.3 8.38443C1689.87 6.65983 1708.16 5.97361 1704.08 7.70758C1703.42 7.97415 1685.97 10.8776 1688.3 8.38443ZM1223.75 6.29458C1223.99 6.23076 1229.47 6.31315 1229.72 6.38355C1234.27 7.88471 1218.77 7.66214 1223.75 6.29458ZM1251.84 7.21914C1253.94 5.60469 1260.09 6.35055 1263.97 6.32598C1262.27 7.70483 1255.21 7.20867 1251.84 7.21914Z" fill="#FFE7E9"/>
</svg>
