<svg width="576" height="165" viewBox="0 0 576 165" fill="none" xmlns="http://www.w3.org/2000/svg">
<path d="M65.2291 163.829C65.5727 163.629 66.9885 164.053 67.5418 163.958C66.9651 165.986 63.9727 164.555 65.2291 163.829ZM70.0976 158.712C69.3714 160.496 67.5458 159.222 66.512 159.745C64.9541 160.481 62.5329 167.34 63.5367 160.504C65.7446 159.906 67.8981 159.31 70.0976 158.712ZM562.46 0.0198001C563.305 0.486168 560.797 2.28453 560.743 3.48427C560.736 3.66629 563.277 5.08325 563.339 5.2671C563.76 7.30519 561.075 6.67216 561.626 8.44898C562.293 8.62956 562.96 8.81122 563.626 8.99499C561.548 11.7047 557.054 12.3097 556.263 14.8842C559.638 12.9502 563.298 11.7508 563.978 16.6217C564.267 18.6705 562.949 20.3966 563.082 20.8974C563.566 22.6828 565.338 19.9355 565.432 20.0077C565.511 20.0993 565.555 20.2001 565.57 20.3077C565.717 21.399 562.903 23.2135 562.823 23.7687C562.704 24.741 564.533 27.9214 564.643 28.7299C564.618 28.9091 562.674 30.5079 563.575 31.6624C564.483 32.829 566.303 32.2216 566.383 32.3497C566.851 33.0753 563.797 34.9693 563.778 35.5071C563.77 35.7769 565.686 36.7314 565.796 37.1643C565.904 37.5982 564.759 39.0357 564.461 40.6358C564.238 41.8242 565.45 42.2399 565.281 42.4744C565.157 42.6305 562.202 43.6823 562.084 43.9241C561.909 44.2768 562.784 45.2801 562.731 45.6319C562.655 46.1362 561.639 46.0318 561.831 46.4518C561.979 46.7577 566.292 49.7621 566.435 50.9368C566.676 52.9281 562.144 49.7768 566.882 56.2818C566.919 56.3209 567.703 55.4613 567.739 55.4968C568.483 56.7431 566.008 59.9438 569.368 58.3472C563.381 63.1043 569.012 61.5983 568.55 65.2657C568.371 66.6735 566.018 68.0821 566.031 68.2818C566.51 69.8166 567.096 68.2779 567.478 68.9779C567.684 69.3708 565.768 71.8772 566.423 72.8122C566.762 73.2905 569.028 72.2551 569.142 72.3342C570.206 73.0654 569.255 74.603 569.563 75.2823C569.77 75.7371 571.161 75.2847 571.207 75.3643C571.293 75.5318 569.706 78.2347 569.425 79.0904C569.209 79.7467 570.444 80.2103 570.273 80.5244C569.238 82.4007 566.064 79.714 569.359 83.9068C569.561 84.1636 570.498 83.6936 570.539 83.7446C571.343 84.984 569.596 85.7451 569.458 87.0486C569.22 89.2925 571.576 87.235 569.69 89.4367C571.46 90.2041 572.326 89.8347 574.118 88.8122C569.154 91.6669 568.177 97.6226 573.77 95.4673C571.971 96.0206 572.602 98.9473 572.081 99.19C571.752 99.337 568.74 97.3071 570.908 103.548C571.179 104.326 572.58 102.7 572.343 104.584C568.548 105.514 572.427 105.696 572.461 105.924C572.989 109.844 563.443 110.046 561.954 111.153C560.224 112.394 559.133 116.13 558.739 116.296C557.447 116.829 558.26 114.825 557.874 114.37C557.488 113.917 554.294 118.455 554.077 118.375C553.246 118.021 553.657 115.868 553.567 115.802C552.973 115.39 551.278 116.272 549.593 117.207C549.574 117.217 549.554 117.229 549.534 117.24C548.156 118.02 545.666 119.21 544.606 119.361C544.899 120.573 549.53 118.839 546.974 121.91C543.743 125.517 542.787 120.144 542.679 119.945C527.571 124.108 518.689 124.076 507.918 125.2C508.115 128.108 514.865 125.341 515.089 125.693C515.988 127.831 505.247 128.755 503.268 127.956C504.31 128.476 505.306 128.996 506.325 129.514C504.647 132.995 500.497 128.94 497.868 130.592C497.009 131.127 498.712 132.302 498.684 132.397C497.715 133.764 496.227 132.86 497.284 131.044C495.065 132.863 495.342 130.996 493.534 130.972C493.439 130.972 494.261 132.274 492.825 132.924C492.207 133.225 488.718 133.44 488.241 134.649C488.058 135.158 489.998 140.284 490.103 135.766C493.937 137.732 491.264 133.641 492.715 133.655C492.926 133.668 492.533 136.21 496.232 134.787C495.661 139.368 491.211 136.252 490.523 136.84C489.024 138.063 495.368 140.021 496.419 136.408C495.993 139.979 496.834 136.859 498.271 136.908C499.848 136.96 499.191 138.06 500.03 138.009C502.312 137.878 501.212 135.453 503.235 137.564C501.206 130.728 506.354 136.417 507.998 138.114C505.531 138.661 503.142 139.19 500.796 139.707C500.941 140.063 501.087 140.419 501.232 140.776C500.61 140.767 499.979 140.76 499.338 140.751C499.431 140.394 499.524 140.036 499.616 139.679C496.329 142.185 495.601 139.66 495.305 139.651C491.825 139.576 487.939 139.83 484.564 140.012C484.071 140.038 484.381 142.309 480.672 140.724C479.483 140.219 480.559 138.382 479.222 138.721C477.633 143.636 477.57 139.787 477.059 139.808C475.577 139.887 474.801 141.124 474.655 141.144C472.944 141.419 470.177 141.357 468.338 141.625C468.302 141.645 469.329 143.079 468.075 142.702C467.674 142.564 463.428 136.439 460.097 138.656C461.006 139.042 461.905 139.427 462.793 139.813C461.813 139.264 454.251 141.205 456.139 142.813C457.311 143.797 459.987 139.592 460.35 143.501C457.736 142.454 444.236 144.8 443.117 143.93C442.97 143.803 443.858 142.497 443.651 142.342C443.531 142.253 441.663 142.483 440.571 142.389C440.251 142.36 440.003 142.299 439.905 142.187C439.751 142.013 440.211 141.622 440.551 141.243C440.769 141.013 440.942 140.787 440.896 140.615C440.878 140.56 440.746 140.503 440.538 140.455C439.589 140.218 436.892 140.18 436.724 141.51C437.677 140.831 440.333 141.281 438.967 142.683C438.792 142.857 437.843 141.867 437.626 142.088C436.255 143.48 438.671 143.585 440.589 143.506C441.533 143.467 442.367 143.39 442.672 143.382C442.04 143.741 441.344 143.982 440.599 144.144C437.028 144.966 432.04 143.67 428.436 144.921C426.623 143.664 431.055 142.785 429.015 141.765C424.761 139.651 427.923 143.646 427.795 143.82C426.777 145.198 423.03 138.163 423.116 143.626C421.599 142.862 422.081 142.154 419.949 142.951C420.238 143.319 420.525 143.686 420.813 144.054C418.506 147.309 413.212 139.519 413.605 138.894C414.607 137.225 417.33 139.666 417.549 139.597C417.879 139.492 418.744 133.915 422.422 138.733C423.851 134.957 416.639 136.443 419.896 133.782C417.659 134.286 408.417 132.041 407.101 133.721C406.943 133.94 407.746 137.618 405.416 135.816C404.308 134.958 406.945 134.819 406.431 133.993C404.864 131.464 384.195 133.859 380.288 134.126C380.034 134.139 380.11 132.985 379.861 133.004C379.095 133.064 376.311 134.874 374.912 134.393C377.817 136.423 372.228 136.78 370.848 136.593C368.714 136.308 368.816 134.279 367.886 133.88C364.279 132.342 358.849 137.33 356.017 132.929C356.237 137.383 351.161 130.903 348.949 130.935C347.197 130.961 344.683 133.995 347.08 135.715C344.053 135.609 340.814 136.545 338.002 136.907C337.534 136.967 338.162 135.628 337.363 135.773C337.29 135.799 337.206 137.091 336.521 137.247C330.843 138.556 333.575 135.721 332.499 134.948C331.896 134.515 331.451 134.305 331.126 134.241C334.456 133.882 338.264 133.252 339.282 133.182C338.381 130.358 331.949 133.966 330.024 133.259C329.958 133.233 330.166 131.662 330.101 131.645C330.099 131.645 330.098 131.645 330.096 131.645C329.366 131.548 324.873 132.272 325.823 134.117C326.085 134.61 328.142 134.543 330.632 134.293C329.965 134.667 330.489 136.413 330.371 136.492C328.931 137.408 325.431 135.8 324.178 135.607C323.894 135.566 323.928 136.687 323.882 136.697C322.746 136.477 323.17 133.24 322.049 136.6C319.946 132.648 325.886 135.881 325.435 133.285C325.095 131.288 312.008 132.779 312.093 135.94C312.043 135.603 311.858 135.189 311.482 134.723C310.651 133.687 307.006 134.132 306.381 134.735C306.276 134.853 306.356 137.923 306.224 137.955C305.894 138.034 301.422 135.765 299.78 137.631C300.684 138.033 301.587 138.437 302.49 138.84C297.407 139.021 297.834 139.813 299.407 140.622L299.736 140.785C299.826 140.79 299.916 140.904 300.002 140.914C301.412 141.549 303.214 142.148 303.244 142.389C303.359 143.311 294.161 144.107 295.894 141.205C296.137 140.808 300.414 141.945 298.279 139.977C297.904 139.633 295.178 140.295 295.028 140.076C294.048 138.616 300 136.454 299.244 134.36C297.82 136.42 295.942 135.414 294.285 135.986C293.533 136.244 293.367 137.789 293.274 137.823C291.886 138.267 292.647 136.629 292.183 136.683C291.934 136.719 289.23 140.237 289.69 135.485C280.677 139.244 287.232 139.042 292.778 138.606C291.046 140.384 287.596 139.655 286.056 140.103C285.503 140.265 285.851 141.836 284.918 142.18C282.997 142.889 273.783 141.351 271.383 140.994C272.847 140.391 272.395 138.683 271.262 138.836C270.128 138.99 271.11 141.258 270.891 141.512C270.656 141.775 265.313 140.85 264.431 141.174C268.432 140.222 267.506 138.532 264.101 138.454C264.586 137.945 265.073 137.435 265.559 136.926C263.57 137.68 259.354 135.186 258.203 136C258.025 136.131 258.69 137.549 258.592 137.627C257.585 138.271 254.122 136.901 253.969 137.399C253.84 137.813 255.321 138.98 254.783 139.591C254.67 139.718 253.231 137.81 251.844 138.33C251.33 138.522 251.657 139.877 251.528 139.961C250.452 140.65 251.063 138.332 249.087 138.759C247.644 139.076 246.578 141.355 244.558 140.669C251.205 143.34 245.628 142.308 242.879 143.256C242.439 143.408 242.845 145.875 240.192 144.746C245.757 140.101 238.561 142.423 237.09 142.417C237.009 142.405 236.961 140.772 236.239 140.767C236.179 140.777 236.277 141.872 235.604 141.976C229.207 142.961 233.288 141.594 232.059 140.54C231.534 140.092 228.448 141.743 227.615 141.805C227.424 141.813 227.498 140.665 226.757 140.731C225.448 140.851 224.284 142.107 223.409 142.229C223.308 142.238 223.281 140.425 221.635 141.06C221.172 141.238 220.659 141.897 221.324 142.398C223.542 144.047 227.632 140.965 230.117 142.602C232.38 144.093 225.303 144.446 224.94 144.465C224.805 144.475 226.173 143.535 224.77 143.398C223.559 143.285 221.391 146.476 219.592 145.847C219.454 145.8 217.996 143.195 218.057 143.033C218.115 142.919 220.306 142.279 219.978 141.521C219.936 141.435 218.543 141.491 218.354 140.926C218.123 140.236 217.442 133.429 217.143 133.266C216.375 132.866 216.889 134.408 216.395 134.314C215.337 134.116 211.637 132.203 211.537 134.573C212.15 134.695 212.763 134.818 213.377 134.941C209.976 135.282 211.439 136.247 210.962 136.704C210.45 137.199 210.571 135.116 209.425 134.953C209.172 134.917 204.411 135.489 204.511 136.359C207.125 134.895 206.181 137.492 206.303 137.535C206.766 137.688 207.339 136.231 207.959 136.242C212.332 136.343 207.951 138.743 208.989 139.298C209.347 139.485 210.04 138.236 210.192 138.294C210.685 138.483 210.712 140.094 211.038 139.954C211.798 139.63 210.881 137.379 210.939 137.256C211.604 135.809 214.308 137.507 212.667 140.036C213.683 140.902 213.756 137.884 214.557 139.066C216.146 141.409 213.803 140.862 213.168 141.277C210.884 142.772 210.187 141.634 206.957 142.123C205.795 142.296 204.438 143.801 203.901 143.897C203.572 143.957 200.286 138.952 200.28 146.93C199.013 146.194 196.987 140.994 195.705 141.271C194.554 141.524 194.953 144.334 194.847 144.446C194.683 144.622 193.289 144.441 192.825 144.853C192.28 145.339 192.566 146.407 191.699 146.871C189.517 148.022 189.535 145.143 189.308 144.961C186.658 142.871 187.855 146.936 187.277 147.281C186.721 147.599 179.214 146.233 177.589 147.316C178.233 146.721 178.88 146.125 179.527 145.529C178.336 143.766 177.136 146.73 177.077 143.509C176.899 148.717 174.465 145.309 173.753 145.463C173.472 145.527 173.504 146.411 173.152 146.459C171.783 146.653 168.664 146.036 167.9 146.506C164.661 148.533 173.033 151.518 173.663 151.694C172.385 151.673 164.954 153.046 168.406 155.45C168.94 155.821 169.859 153.467 170.156 153.367C172.125 152.713 170.595 154.843 170.752 155.037C171.019 155.347 172.299 153.297 172.647 153.528C172.763 153.603 172.043 155.511 173.94 155.497C173.034 157.354 167.667 156.013 166.95 156.462C166.704 156.622 168.308 160.492 163.683 156.82C163.74 157.181 163.798 157.543 163.855 157.905C161.322 158.125 158.774 158.344 156.196 158.566C156.466 157.721 157.888 156.001 156.078 156.408C155.037 156.643 155.829 158.486 155.735 158.543C154.801 159.082 138.355 158.917 135.086 159.215C133.99 159.312 131.041 160.893 130.789 160.928C129.361 161.117 124.449 160.277 123.506 160.514C122.908 160.666 123.495 162.209 122.959 162.151C122.463 162.094 122.96 160.575 122.812 160.516C121.499 160.006 112.141 162.239 109.804 160.882C111.213 161.27 118.01 158.073 117.86 157.015C117.827 156.87 116.157 155.771 115.826 156.338C115.249 155.05 113.39 159.073 112.274 158.323C112.152 158.238 112.6 155.997 110.683 155.646C110.024 155.526 108.333 157.308 106.634 155.408C106.421 155.496 106.128 155.558 105.773 155.597C105.466 155.63 105.112 155.648 104.721 155.654C100.147 155.727 90.8603 154.275 90.1985 156.3C90.1734 156.427 91.9752 157.202 90.7744 158.217C89.1566 159.567 90.5809 155.13 88.616 154.805C88.264 154.757 83.0547 155.344 82.8087 155.623C81.203 158.135 85.9023 159.008 85.8227 159.297C85.6842 160.023 81.8057 160.565 81.6201 160.401C81.4644 160.228 84.6505 156.871 80.7978 158.217C81.2405 158.596 81.6868 158.974 82.1361 159.353C80.3246 160.163 80.1433 157.906 79.708 157.779C78.382 157.378 76.952 160.854 74.7119 156.671C74.1267 155.561 75.0634 154.283 74.9905 154.116C74.2824 152.621 73.4547 156.697 72.4159 153.702C72.3162 153.479 74.7318 151.6 70.5004 151.712C70.799 151.994 71.0993 152.276 71.4015 152.558C70.7482 153.223 66.5758 153.722 65.9804 153.585C64.2616 153.185 65.7215 151.063 64.0273 151.358C65.1189 154.181 60.082 154.693 60.3029 152.23C59.6114 155.334 55.2127 153.076 53.2283 153.057C51.9064 153.049 49.3135 154.466 48.918 154.32C48.3994 154.14 48.526 152.033 47.6074 151.59C47.3594 151.463 44.6455 153.08 42.3405 150.965C41.8534 150.558 40.8424 147.017 41.698 146.102C43.1175 144.536 45.9589 147.333 45.8618 145.226C45.7882 142.972 42.1652 144.413 41.0921 144.148C36.5085 142.912 39.102 140.441 38.9991 139.717C38.6274 137.964 36.1985 138.085 36.0449 137.931C35.5935 137.238 37.3978 135.792 37.3855 134.716C37.4399 133.312 34.931 130.851 35.4901 130.362C36.309 129.668 38.4971 131.716 38.6662 131.611C40.5622 130.197 37.8849 127.031 37.2246 125.458C37.0144 124.974 37.8234 124.147 37.6519 124.008C35.0175 121.903 37.1436 128.576 35.368 128.176C33.824 127.818 35.7733 125.639 35.7309 125.519C35.6396 125.392 33.7917 125.326 33.4592 124.582C33.3599 124.205 38.164 119.935 37.9415 118.084C36.4242 118.535 34.864 118.986 33.2606 119.44C33.1163 117.024 35.3812 118.741 35.6121 118.487C36.0767 117.973 34.7548 116.784 34.8098 116.017C34.8255 115.529 36.3371 113.75 34.9507 113.072C34.5131 112.839 33.4694 114.563 31.7424 112.877C37.7559 110.496 33.5983 109.25 33.3616 108.399C33.1722 107.547 36.0989 105.448 32.5503 105.903C32.357 101.196 32.5862 104.412 33.5924 103.556C34.8286 102.504 31.9687 101.033 36.4544 102.086C36.1279 99.8898 32.5641 100.142 32.3916 99.9715C32.2301 99.8164 32.9916 98.711 32.7113 98.3509C29.306 94.1825 31.6289 96.0633 30.6371 93.3687C30.5914 93.1254 27.3613 92.2076 29.7782 91.7447C34.1454 90.9031 36.0617 93.9762 36.7075 87.2754C33.4466 84.4623 29.5013 88.8856 28.5575 88.9849C26.9881 89.1337 28.5895 87.7253 28.3977 87.3486C28.2932 87.2288 27.0551 87.3752 27.0071 87.2684C26.004 82.1994 32.7998 87.0231 34.9063 86.0787C34.3367 85.3312 33.7858 84.5835 33.1785 83.8371C34.0083 83.7836 34.6911 83.7345 35.4923 83.6818C31.8797 82.2472 35.2962 83.1056 36.2502 78.9526C36.45 78.0197 34.019 79.6761 36.753 77.0233C34.7314 76.484 35.3322 75.6254 33.5369 76.8383C33.5676 75.1831 37.6545 73.2039 39.2976 72.3098C33.541 70.6095 36.8419 76.5863 31.8634 73.5134C30.9829 75.5855 33.2918 75.1232 33.1252 75.4655C32.4335 76.7003 30.8163 74.8153 28.8726 79.1288C28.5589 79.8369 29.9445 81.9505 27.9293 81.9025C27.8155 81.8983 27.4351 81.4454 27.1115 80.9762C26.7324 80.5094 26.4183 80.0262 26.4245 79.9574C26.5878 78.5121 27.8425 79.0164 27.8938 78.4136C27.9284 77.8434 26.5436 78.2236 26.5222 78.0664C26.4893 77.1657 26.7865 76.9845 27.0826 76.9587C27.3397 76.9341 27.6003 77.0643 27.5099 76.7843C27.1098 75.566 21.9978 71.8242 28.6396 72.7773C23.1382 74.9707 27.9622 74.789 30.1 73.946C30.6215 73.7351 30.7369 72.6539 31.5438 72.2574C32.4932 71.7467 33.7667 72.229 34.2272 72.0184C34.7905 71.7846 31.5852 69.3251 36.1914 69.9582C33.8061 67.4898 29.724 70.304 27.41 68.5888C22.756 65.1215 30.6175 64.1305 31.4095 63.7602C31.6325 63.6574 30.862 62.2288 31.01 62.1326C31.2901 61.988 35.6697 62.5396 36.1515 61.3215C36.5997 60.1057 34.4751 61.4231 34.3492 60.1719C34.2433 59.3296 39.5968 57.6828 36.6875 57.1854C34.6574 56.8454 31.0633 60.3411 30.3597 56.7091C33.2986 56.3255 36.2364 55.9416 39.1944 55.5578C37.5729 54.2132 35.9634 52.8681 34.3049 51.5246C37.5796 50.9938 40.5639 52.4808 43.609 50.4082C36.0122 46.1657 46.0761 46.787 46.1148 46.2442C46.1478 45.919 43.1541 42.3899 42.6513 41.7418C45.2711 40.2888 53.1367 39.3972 48.635 35.139C49.5113 35.8586 51.451 33.481 51.4305 33.3004C51.0682 31.3407 46.715 32.7376 47.3755 30.9401C48.2184 28.851 49.3627 31.6215 50.7103 31.3606C57.3769 30.0101 55.4354 19.7736 62.1596 21.2166C62.0227 20.8542 61.886 20.4922 61.7501 20.1298C69.0494 20.5123 76.35 20.894 83.6754 21.2759C86.4659 18.0568 94.1152 15.9341 97.808 16.1804C98.5355 16.2289 102.279 17.7729 102.583 18.0539C103.114 18.5935 100.224 18.8845 101.541 19.8873C101.629 19.9518 102.314 20.047 103.214 20.0932C103.543 20.1109 103.902 20.1216 104.267 20.1211C105.956 20.12 107.852 19.86 107.589 18.8703C106.885 18.6858 104.742 19.6274 104.393 19.2227C104.336 19.1559 104.29 19.0909 104.255 19.0291C104.134 18.823 104.139 18.6439 104.249 18.4883C105.407 16.6772 121.225 18.0462 122.05 16.9514C121.624 16.3922 121.199 15.8326 120.775 15.2733C121.967 15.5214 123.17 15.769 124.384 16.0164C123.9 16.5273 123.418 17.039 122.937 17.5498C124.321 17.8349 126.198 17.4192 127.517 17.855C127.733 17.9284 127.192 19.3834 127.701 19.4338C128.211 19.4826 128.09 17.5174 128.831 17.2864C129.683 17.033 133.357 18.3031 134.677 18.2336C139.634 17.9638 144.377 16.7087 149.324 17.3893C144.3 18.9856 149.419 20.3263 150.78 19.6571C151.094 19.4999 150.972 15.845 156.05 16.6252C159.284 17.1203 156.401 22.4343 161.67 19.6658C157.554 16.1192 161.547 16.2634 164.781 16.0513C165.337 16.0142 169.864 16.4372 171.812 16.2205C172.485 16.1452 173.495 14.1993 174.395 14.1237C175.014 14.0737 175.495 15.1079 176.418 15.029C180.755 14.6709 184.868 14.4733 189.222 14.7046C186.754 19.7014 191.223 16.7504 191.411 16.9793C192.447 18.288 187.837 18.7991 189.679 19.5838C192.216 19.3593 194.755 19.1342 197.318 18.9087C195.206 18.3636 200.059 14.6815 200.982 16.2676C200.507 11.9272 212.684 19.7223 214.474 18.2179C214.853 17.8998 212.329 15.8198 218.13 16.6374C218.76 16.7287 218.538 18.0498 218.866 17.9178C219.063 17.8361 220.209 13.6303 221.513 15.8995C221.981 16.7289 219.059 19.5548 225.558 18.265C222.905 14.092 234.582 15.7016 236.731 16.7037C236.297 16.1455 235.864 15.5873 235.431 15.029C237.559 16.507 237.925 15.0521 238.402 15.1163C240.325 15.3765 242.987 16.7548 244.781 16.5694C246.883 16.3548 246.851 13.7124 249.303 14.6679C248.718 14.1022 248.133 13.5363 247.548 12.9706C249.232 13.0615 250.919 13.1521 252.608 13.2427C248.744 16.8552 253.452 13.3849 253.765 13.3003C254.263 13.1583 253.563 14.6107 254.396 14.408C254.482 14.3761 254.341 13.0313 255.627 12.8415C258.315 12.4501 257.91 14.1584 259.037 14.1062C259.14 14.0944 258.764 12.8901 260.708 12.5449C266.886 11.4465 260.692 13.4747 260.453 13.6509C260.143 13.8816 262.329 18.8955 257.046 17.2515C258.824 17.7721 259.024 20.0137 259.224 20.0635C259.405 20.1035 262.455 19.6976 262.623 19.6152C264.118 18.8078 262.777 17.3127 263.066 17.0282C263.303 16.7993 267.017 18.6886 267.826 14.0452C269.643 18.2515 266.855 17.9444 263.904 18.6871C263.483 19.574 266.744 20.3274 266.915 20.3199C271.109 20.1868 268.745 16.7534 269.635 14.4865C270.102 13.3007 271.837 15.639 270.223 12.5449C274.022 12.0994 271.739 13.989 271.988 14.251C272.364 14.6346 273.682 13.6952 273.851 13.8097C274.097 13.9799 273.261 15.0935 274.229 15.4477C274.39 15.4986 275.921 13.58 273.907 12.7456C276.587 12.931 276.346 11.3431 277.293 14.5319C279.062 8.39165 278.675 18.0873 279.405 18.4063C281.345 19.2462 280.728 14.4917 280.827 14.251C281.511 12.7372 286.877 14.2152 288.191 13.4869C287.712 16.9425 283.956 13.6535 283.133 14.3452C280.39 16.65 287.058 15.9478 285.099 20.3322C285.928 19.1192 286.757 17.9062 287.585 16.6932C289.164 19.4256 286.988 20.7035 291.132 19.5611C291.782 17.1418 288.199 20.0304 288.901 18.1185C289.316 16.9966 291.722 16.6845 291.762 16.0984C291.801 15.393 289.633 16.2931 289.963 15.2C290.68 12.8417 298.667 14.8228 292.623 16.2833C294.312 16.1917 295.243 20.8112 296.689 19.3186C297.624 18.3497 292.219 12.0953 300.224 13.0264C300.422 15.2147 297.041 13.7738 296.952 13.9422C296.833 14.1891 297.503 19.1228 297.612 19.364C298.002 20.1559 306.106 17.2546 307.876 19.6867C307.161 16.8473 314.037 18.9841 314.765 18.0888C314.959 17.8408 314.199 16.114 314.407 15.9204C315.702 14.7752 319.347 17.7911 321.007 17.8202C322.869 17.8533 322.613 16.3465 322.717 16.3461C323.535 16.405 322.896 17.4516 323.396 17.4329C324.152 17.4043 329.323 17.4496 329.598 17.227C329.674 17.1579 328.801 15.4544 329.933 15.0901C330.128 15.0288 330.036 17.0824 333.377 16.0897C337.396 14.895 330.542 13.6294 332.189 11.4285C334.823 14.4027 334.697 11.3754 335.402 11.5907C335.649 11.6709 337.478 14.188 339.445 13.9614C338.032 14.4254 336.644 14.8883 335.238 15.3518C336.631 15.7586 339.295 15.1132 340.463 15.5855C341.027 15.8157 340.594 17.9476 341.81 17.8516C342.067 17.8195 343.027 12.6301 339.866 15.0465C339.587 13.2137 341.122 14.3637 341.818 13.8201C341.924 13.733 342.303 10.6471 343.225 12.5275C343.443 12.9908 341.232 22.0401 347.169 15.35C347.359 15.1343 346.672 14.0344 346.857 13.794C346.984 13.6321 348.522 14.0349 348.69 13.8707C348.861 13.694 348.105 12.4913 348.308 12.2432C349.348 10.9653 350.796 15.7854 348.616 15.4861C349.352 16.0633 350.081 16.6399 350.832 17.2166C349.994 13.5775 351.978 16.1466 352.993 16.0007C359.486 15.064 355.1 12.8232 356.201 11.5523C357.965 9.51284 356.685 15.832 359.31 13.8585C359.556 13.6709 356.296 11.119 362.607 12.4106C361.673 12.5458 360.736 12.681 359.822 12.8153C360.387 16.3446 363.182 12.4607 363.396 12.4036C365.869 11.8334 364.218 13.1673 367.855 11.2174C368.18 11.0425 368.903 11.8939 369.592 11.4337C372.451 9.53767 365.768 10.4712 365.553 9.04209C365.478 8.34113 372.639 8.27532 372.936 8.599C374.012 10.0437 369.657 9.36382 370.513 11.1738C370.807 11.8174 381.145 10.1209 383.202 10.7639C385.627 11.5123 386.767 16.282 386.707 10.879C387.457 16.158 388 12.5196 388.305 12.5449C391.991 12.9059 391.965 12.9616 395.166 12.3391C395.869 12.2038 396.484 13.7902 396.728 13.5096C396.869 13.3403 396.576 11.6293 397.274 11.0726C398.253 10.3106 404.102 11.8692 404.594 12.8031C405.051 13.7379 402.083 13.3083 402.635 14.8528C404.788 14.9325 406.822 14.47 408.939 14.5563C409.818 14.5969 409.384 15.7102 409.763 15.7181C409.925 15.7257 412.924 14.6476 412.811 14.2475C412.475 13.3217 403.116 14.3001 405.555 12.292C406.033 11.9046 407.763 14.3636 407.448 11.3046C415.838 11.6904 424.331 12.0625 432.729 12.4193C427.908 14.9115 422.364 13.0736 417.399 13.4782C416.711 13.5312 414.345 13.3246 414.655 14.8651C418.969 15.104 424.347 14.0866 428.453 14.9348C428.584 14.9643 428.128 16.3767 428.62 16.5781C429.5 16.9554 432.56 14.5834 433.069 15.1442C433.159 15.2773 431.454 17.1835 432 18.3295C433.405 21.2713 433.638 14.6222 434.789 14.654C435.212 14.6675 436.789 15.3435 438.445 15.8262C440.384 16.3553 442.413 16.6476 443.17 15.5506C444.723 13.3226 438.724 14.482 439.119 12.6967C443.235 10.7489 447.259 12.4741 451.122 12.0809C451.189 12.0722 450.585 10.7126 451.426 10.4813C452.888 10.0793 453.281 12.0258 454.012 12.3077C454.829 12.6056 457.6 12.1973 457.973 12.8956C458.021 12.9872 457.504 14.9576 457.419 15.0203C456.233 15.8786 455.748 13.3695 455.638 13.3422C455.22 13.266 454.826 14.2529 454.441 14.2126C453.795 14.1457 453.468 13.2636 452.668 13.22C452.117 13.1868 452.679 14.884 452.146 14.8302C451.955 14.803 449.756 10.9684 449.622 14.9872C449.537 16.2661 467.144 17.0742 468.814 15.9641C467.358 15.5946 466.068 15.2195 464.688 14.8441C467.604 15.5003 470.998 12.5719 471.313 17.1032C482.473 16.9149 493.868 16.6545 504.806 16.1821C506.722 16.432 505.82 19.5621 508.963 18.4063C508.125 17.5067 507.261 16.6067 506.369 15.7076C508.112 16.2622 515.272 16.9282 516.358 16.1612C516.51 16.061 516.557 13.2969 518.275 12.8607C519.753 12.4763 520.089 14.5025 520.896 14.7953C521.547 15.0378 522.249 14.3964 522.441 14.483C522.59 14.5535 522.723 15.8043 523.07 15.9745C524.159 16.4942 523.105 13.0824 524.4 16.9846C524.162 17.1792 523.913 17.3748 523.653 17.5707C524.997 17.9628 526.761 19.5142 525.008 20.7351C524.709 20.9425 524.896 19.684 524.663 19.7233C514.616 21.34 523.116 22.6477 526.061 20.1943C526.495 21.0297 527.848 20.9544 528.756 20.7264C529.7 20.4942 530.174 20.1394 530.241 20.3008C530.411 20.7725 530.213 22.3188 530.882 23.3727C531.024 23.4548 531.406 23.1531 533.046 22.518C533.067 22.51 533.088 22.503 533.108 22.4953C534.729 21.8839 536.025 21.6945 534.827 23.4477C534.657 23.6956 534.103 23.9854 533.419 24.2764C533.398 24.2852 533.377 24.2956 533.357 24.3043C531.985 24.8878 531.381 24.8981 531.133 25.03C531.744 26.4942 532.233 26.2479 533.492 25.0823C533.511 25.0646 533.531 25.0478 533.55 25.03C535.224 23.4626 536.688 21.0422 537.024 20.9828C539.394 20.597 533.213 26.049 538.404 24.3078C542.418 22.9745 538.276 22.0602 539.625 20.3618C540.378 19.4033 545.363 20.2787 544.665 16.7909C546.166 15.7821 545.558 18.0264 545.773 18.0836C545.977 18.1244 548.89 15.8363 550.011 16.1978C550.146 16.2438 550.057 18.2377 550.206 18.34C550.49 18.4991 553.399 16.99 553.5 16.7892C553.559 16.6513 552.602 15.3023 552.834 14.7988C553.104 14.215 556.034 13.5159 556.124 12.9968C556.239 12.212 552.763 14.0035 553.076 11.9745C554.787 11.8052 557.272 9.61246 558.146 7.75992C557.944 8.27222 556.357 8.91642 555.78 8.9758C555.646 6.22102 559.083 5.00768 558.218 7.53663C558.799 6.1373 558.204 5.72168 558.467 4.50478C558.535 4.19588 559.594 3.75719 559.729 3.2261C559.744 3.12382 558.501 2.5151 558.641 1.89683C558.899 0.774053 562.159 -0.147987 562.46 0.0198001ZM102.156 160.46C100.667 159.553 101.765 155.721 103.008 157.268C103.149 157.45 104.185 161.679 102.156 160.46ZM86.7227 159.079C86.7818 159.027 88.0601 159.094 88.1077 159.152C89.2701 160.647 85.4198 160.439 86.7227 159.079ZM96.9435 159.093C97.1307 157.901 98.5808 158.432 99.2318 158.698C99.2175 159.782 97.5945 158.942 96.9435 159.093ZM72.0141 158.255C71.9833 157.311 74.1927 157.186 74.3235 157.322C75.0929 158.196 72.8471 159.405 72.0141 158.255ZM135.354 157.706C135.385 156.772 130.221 156.966 129.813 158.206C130.712 157.66 135.276 158.546 135.354 157.706ZM160.062 155.014C158.756 151.955 156.265 158.298 158.293 157.61C158.487 157.541 160.132 155.163 160.062 155.014ZM161.2 155.075C159.602 155.284 160.798 158.707 161.781 157.257C161.842 157.165 161.305 155.064 161.2 155.075ZM115.826 156.338C115.921 156.552 115.983 156.889 115.997 157.442C115.745 156.843 115.721 156.517 115.826 156.338ZM148.89 156.021C148.751 155.863 146.914 156.161 146.978 156.982C147.884 158.036 149.508 156.733 148.89 156.021ZM121.067 157.184C122.87 155.446 119.174 155.615 119.217 156.821C119.231 157.277 120.989 157.253 121.067 157.184ZM175.749 155.326C175.843 155.104 174.42 149.925 177.699 153.275C178.181 153.766 176.495 155.182 176.667 155.365C177.025 155.721 177.307 155.885 177.532 155.909C176.025 156.385 174.467 156.633 174.312 156.321C173.586 154.841 175.705 155.414 175.749 155.326ZM163.265 155.182C163.102 155.021 165.57 149.853 161.945 153.781C163.907 154.327 161.85 154.94 161.886 155.386C161.977 156.666 165.256 155.341 166.002 155.874C166.549 153.563 163.805 155.711 163.269 155.182H163.265ZM179.32 153.367C181.589 154.031 179.934 155.077 177.941 155.769C178.57 155.206 178.56 153.147 179.32 153.367ZM189.832 151.028C190.137 150.165 192.133 150.565 192.577 150.904C192.655 150.968 192.346 153.222 193.23 153.029C193.939 152.869 192.85 150.602 194.242 150.93C195.65 151.26 193.792 152.952 193.917 153.066C194.082 153.214 196.244 152.12 196.193 153.458C196.153 154.45 193.816 153.847 193.245 154.074C192.514 154.365 193.423 155.989 192.192 155.67C191.419 155.47 191.813 152.557 191.648 152.415C191.512 152.303 188.793 154.045 189.836 151.037C189.835 151.034 189.833 151.031 189.832 151.028ZM212.463 152.455C212.902 151.097 214.326 151.487 215.28 151.539C214.849 152.897 213.436 152.506 212.463 152.455ZM180.581 151.803C181.208 150.192 183.207 151.269 184.264 151.478C183.635 152.807 181.512 152.275 180.581 151.803ZM174.078 151.738C173.974 150.789 176.618 149.799 176.832 152.146C176.259 151.992 174.15 152.332 174.078 151.738ZM68.6227 151.077C67.6359 150.999 65.7037 150.502 66.3145 152.019C66.3942 152.147 68.6158 151.937 68.6227 151.077ZM63.6044 149.721C63.4662 149.574 60.5008 149.923 60.8101 150.622C61.5282 151.94 64.0279 150.231 63.6044 149.721ZM213.472 150.878C213.059 150.406 215.169 149.478 215.819 149.939C215.778 150.954 213.746 151.184 213.472 150.878ZM69.1354 150.009C68.6257 148.12 67.0524 149.368 65.9715 149.299C66.4152 151.003 68.0768 149.617 69.1354 150.009ZM170.499 149.639C169.205 151.005 169.432 146.537 170.576 148.035C170.621 148.097 170.549 149.586 170.499 149.639ZM58.1289 148.342C57.3604 146.474 53.3868 147.985 54.3891 149.205C54.4974 149.365 57.6494 148.283 58.1289 148.342ZM200.43 147.494C201.65 147.918 200.477 149.652 199.664 149.064C199.597 148.999 199.357 147.119 200.43 147.494ZM67.897 147.239C67.5212 145.546 65.7652 146.915 64.6942 146.54C65.0137 147.876 67.1095 147.439 67.897 147.239ZM204.779 143.954C205.03 143.893 205.383 145.466 205.47 145.482C205.672 145.499 210.304 144.757 208.555 146.841C208.248 147.191 201.629 146.598 200.722 146.423C200.361 144.259 203.25 146.245 203.928 146.002C204.048 145.952 204.106 144.136 204.777 143.963C204.777 143.96 204.778 143.957 204.779 143.954ZM185.015 145.577C186.586 144.045 183.293 143.678 182.281 145.16C182.745 145.052 184.905 145.676 185.015 145.577ZM410.128 144.136C409.473 141.771 411.517 141.312 412.86 142.248C413.165 142.459 414.312 144.835 413.05 145.355C413.048 142.46 411.063 141.428 410.128 144.136ZM230.932 143.741C230.986 143.689 232.255 143.753 232.312 143.811C233.472 145.305 229.633 145.104 230.932 143.741ZM180.074 143.161C179.949 141.829 177.663 143.503 178.159 144.12C178.473 144.512 180.146 143.988 180.074 143.161ZM261.513 143.211C262.478 142.947 263.447 142.325 263.791 143.858C263.17 143.641 261.412 144.289 261.513 143.211ZM433.844 142.489C433.209 142.334 431.618 142.343 431.482 143.188C431.268 144.247 433.574 143.796 433.844 142.489ZM188.876 142.555C188.581 142.024 181.079 141.909 185.356 143.45C185.602 143.537 189.735 144.166 188.876 142.555ZM445.064 141.32C444.367 141.169 443.929 143.261 444.052 143.433C444.608 144.202 445.874 142.469 445.064 141.32ZM466.863 143.192C460.162 144.758 459.283 139.316 465.391 141.193C465.516 141.232 467.256 142.617 466.863 143.192ZM395.159 141.308C396.438 141.282 395.079 143.752 394.381 142.874C394.123 142.547 394.836 141.317 395.159 141.308ZM388.534 141.397C384.249 136.098 392.33 139.361 394.579 138.571C392.398 140.899 389.522 140.661 393.463 142.826C387.748 143.473 390.09 141.219 389.863 141.046C389.588 140.854 388.718 141.622 388.534 141.397ZM251.428 141.055C252.02 139.814 256.024 140.683 256.936 141.882C256.093 143.696 250.692 142.605 251.428 141.055ZM303.691 141.889C303.469 139.875 306.388 141.093 306.949 141.257C306.751 142.162 303.857 143.341 303.691 141.889ZM405.282 142.335C400.971 143.96 401.795 136.253 407.592 138.632C407.419 138.98 407.245 139.329 407.072 139.677C413.643 140.586 407.546 140.201 405.921 140.69C405.307 140.876 405.843 142.138 405.286 142.344C405.285 142.341 405.283 142.338 405.282 142.335ZM399.61 140.966C399.851 140.798 401.69 141.84 402.338 141.636C401.458 143.53 398.016 142.105 399.61 140.966ZM50.1277 141.948C50.2676 141.132 48.7535 140.422 48.3521 140.779C47.8043 141.339 49.8938 143.253 50.1277 141.948ZM293.542 141.102C293.617 141.039 295.3 141.131 295.382 141.202C296.783 142.712 292.009 142.46 293.542 141.102ZM453.86 140.141C453.418 139.765 452.263 140.07 451.638 139.963C453.647 141.851 451.422 140.036 451.544 142.112C452.89 142.128 456.128 142.086 453.86 140.141ZM449.786 139.349C449.584 140.032 448.164 142.219 449.42 142.013C449.999 141.914 450.886 139.514 449.786 139.349ZM448.801 139.85C448.538 139.541 441.361 138.634 441.801 141.182C442.486 140.853 450.534 141.83 448.801 139.85ZM427.955 139.525C427.759 139.354 422.207 139.449 424.15 140.983C424.754 141.446 429.737 141.044 427.955 139.525ZM188.599 138.761C187.719 138.024 185.541 139.509 186.212 140.247C186.621 140.702 189.611 139.607 188.599 138.761ZM456.298 138.519C455.835 138.525 454.026 138.88 453.985 139.227C453.89 140.424 456.108 139.669 456.298 138.519ZM245.996 138.613C245.206 137.291 243.061 139.04 243.629 139.553C244.024 139.904 246.786 139.944 245.996 138.613ZM172.369 139.492C172.775 138.678 171.577 137.396 171.076 137.816C170.942 137.926 171.844 140.541 172.369 139.492ZM240.04 137.212C239.554 137.023 238.963 139.207 239.02 139.302C239.521 140.079 240.866 138.396 240.04 137.212ZM175.156 139.103C176.087 138.182 173.89 135.493 172.928 137.645C172.433 138.746 174.995 139.257 175.156 139.103ZM446.957 134.927C446.617 134.969 446.991 133.048 445.86 133.81C445.322 134.172 447.028 136.117 446.661 136.525C446.428 136.779 445.196 136.074 444.814 136.722C444.708 136.927 445.99 138.769 446.345 138.672C446.85 138.54 446.333 137.072 446.885 137.038C448.669 136.929 450.46 137.915 452.197 137.814C452.356 137.802 451.108 136.802 452.459 136.757C452.667 136.748 453.95 138.262 455.52 137.959C459.093 132.934 461.605 137.593 466.241 135.616C466.08 135.166 462.557 134.106 462.417 134.067C458.672 133.445 451.901 133.662 447.877 133.824C446.886 133.863 447.384 134.87 446.957 134.927ZM408.521 138.662C408.957 137.308 410.381 137.651 411.333 137.723C411.136 138.724 409.206 138.541 408.521 138.662ZM275.692 136.935C275.458 136.702 273.359 137.708 273.314 138.417C274.536 139.127 276.756 138.018 275.692 136.935ZM353.412 137.934C354.549 137.384 355.935 137.934 357.124 137.857C356.652 138.699 353.915 139.014 353.412 137.934ZM235.386 137.768C234.746 136.416 233.002 136.568 233.538 137.932C233.595 138.061 235.142 138.787 235.386 137.768ZM383.956 138.065C382.573 136.266 388.06 133.929 389.215 135.078C389.324 136.216 384.165 138.311 383.956 138.065ZM309.056 137.024C310.426 137.518 312.097 137.22 312.109 136.115C312.14 136.286 312.208 136.468 312.319 136.649C312.432 136.827 313.882 136.267 314.519 136.624C318.344 138.746 299.883 138.396 310.541 134.944C310.047 135.637 309.551 136.33 309.056 137.024ZM279.875 136.615C279.445 136.24 278.105 136.65 277.977 137.58C278.649 138.014 280.871 137.493 279.875 136.615ZM391.958 135.761C392.461 135.335 393.661 136.611 393.256 137.428C392.738 138.474 391.829 135.883 391.958 135.761ZM247.431 137.599C248.935 135.781 245.809 136.284 244.714 136.378C244.664 137.403 247.325 137.722 247.431 137.599ZM232.194 136.799C231.62 136.706 230.357 135.854 229.919 136.132C228.687 136.92 231.779 138.169 232.194 136.799ZM218.585 131.209C221.404 136.661 221.068 132.407 221.308 132.423C221.827 132.469 223.05 133.928 224.026 133.655C222.912 134.31 221.798 134.964 220.687 135.619C221.584 135.993 229.262 137.808 229.41 136.907C229.624 135.623 227.222 136.093 227.151 135.982C227.048 135.818 226.632 132.286 226.408 132.157C226.056 131.951 219.614 132.063 218.585 131.209ZM357.196 136.5C357.874 135.922 359.124 136.473 359.967 136.38C359.838 137.288 357.506 137.408 357.196 136.5ZM508.022 137.048C508.131 135.579 508.502 134.477 509.969 134.904C509.549 135.672 508.632 136.376 508.022 137.048ZM213.728 136.324C212.933 134.707 216.418 135.23 216.533 135.41C217.141 136.504 214.376 137.644 213.728 136.324ZM522.732 134.419C524.831 131.457 525.432 136.008 525.253 136.181C522.924 138.354 524.339 134.773 524.261 134.62C524.074 134.377 522.424 136.149 522.739 134.417C522.737 134.418 522.734 134.419 522.732 134.419ZM178.34 134.745C176.546 131.577 177.422 135.619 178.994 136.614C179.45 135.156 178.635 135.26 178.34 134.745ZM272.16 133.514C268.198 129.714 270.417 136.795 271.104 136.146C271.204 136.045 272.256 133.603 272.16 133.514ZM243.376 135.227C243.244 135.135 240.556 134.702 240.589 135.611C241.306 136.283 244.9 136.38 243.376 135.227ZM487.701 135.167C487.178 135.271 485.53 134.793 485.401 135.373C485.25 136.131 487.621 136.466 487.701 135.167ZM263.982 134.372C264.615 134.775 264.811 136.175 265.099 135.832C265.197 135.714 265.198 134.372 265.533 134.014C265.016 134.134 264.499 134.253 263.982 134.372ZM437.985 132.949C437.766 132.754 434.767 134.246 436.038 135.556C436.92 136.466 437.024 134.533 437.227 134.519C437.469 134.518 442.263 136.677 437.985 132.949ZM172.716 132.502C172.237 131.936 167.23 132.712 168.009 134.393C168.295 134.992 171.169 133.38 171.291 133.495C171.492 133.664 170.603 135.573 172.122 135.157C172.026 134.521 172.883 132.691 172.716 132.502ZM512.885 134.88C511.654 134.007 514.442 133.442 515.342 133.789C515.391 134.716 513.038 135.01 512.885 134.88ZM176.862 132.725C175.092 130.327 174.755 134.851 176.062 134.827C176.573 134.821 177.115 133.071 176.862 132.725ZM471.216 133.099C470.112 132.747 470.372 134.619 470.443 134.677C471.287 135.247 472.46 133.496 471.216 133.099ZM537.704 133.423C539.737 134.579 533.168 135.491 535.193 133.77C535.312 133.694 537.55 133.389 537.704 133.423ZM265.953 133.91C266.898 134.038 268.699 135.336 268.47 133.322C268.468 133.322 268.467 133.322 268.465 133.322C267.628 133.518 266.79 133.714 265.953 133.91ZM331.126 134.241C330.96 134.259 330.795 134.277 330.632 134.293C330.754 134.226 330.915 134.2 331.126 134.241ZM551.68 129.193C551.984 129.24 552.266 129.458 552.416 129.95C552.275 129.971 552.068 130.046 551.844 130.136C551.824 130.145 551.803 130.152 551.782 130.161C551.3 130.359 550.54 130.704 550.386 130.656C550.289 130.625 550.212 130.588 550.156 130.543C549.974 131.281 547.253 132.424 544.402 133.093C541.594 133.762 539.326 133.843 539.024 133.741C537.703 133.096 539.804 132.475 542.84 131.659C545.906 130.861 549.577 129.696 549.643 129.828C549.848 129.92 549.991 130.026 550.077 130.131C550.286 129.677 551.095 129.148 551.612 129.186C551.635 129.187 551.657 129.19 551.68 129.193ZM507.603 130.726C509.456 130.7 508.941 127.674 510.147 128.964C510.377 129.183 511.128 135.506 509.089 133.278C508.711 132.878 510.089 131.251 507.603 130.726ZM183.962 132.91C183.334 132.5 181.672 131.921 180.555 133.454C182.076 133.54 183.604 133.626 185.139 133.711C185.306 132.855 184.511 133.271 183.958 132.91C183.959 132.91 183.961 132.91 183.962 132.91ZM500.1 132.146C501.378 131.995 502.619 132.284 503.86 132.723C503.618 133.774 500.25 132.907 500.1 132.146ZM486.914 131.904C487.297 130.91 485.243 130.769 484.628 131.321C484.472 132.518 486.87 132.043 486.914 131.904ZM506.77 130.58C507.089 130.607 507.364 130.676 507.603 130.726C507.368 130.729 507.093 130.687 506.77 130.58ZM557.786 125.964C557.922 126.296 556.177 129.844 555.079 129.599C552.996 129.12 557.672 125.73 557.786 125.964ZM503.633 125.175C502.855 124.611 500.564 126.345 500.105 127.809C500.003 127.539 499.738 127.195 499.254 126.794C499.255 126.794 499.257 126.794 499.259 126.794C498.575 126.29 479.731 126.794 492.414 128.788C492.8 128.851 492.228 127.601 493.882 127.724C493.99 127.735 494.072 128.779 494.406 128.809C495.174 128.873 499.214 129.269 500.022 128.366C500.034 128.559 500.092 128.741 500.207 128.903C501.203 130.351 504.231 125.613 503.633 125.175ZM500.105 127.809C500.196 128.049 500.157 128.211 500.022 128.366C500.01 128.183 500.042 128.007 500.105 127.809ZM505.95 125.728C505.89 125.655 503.749 125.234 504.074 126.51C504.571 128.381 506.562 126.39 505.95 125.728ZM528.005 126.325C527.1 126.133 528.002 123.324 529.09 124.626C529.429 125.041 528.544 126.422 528.005 126.325ZM21.6171 55.1653C21.814 54.1909 22.123 53.3073 22.607 53.5813C25.5451 55.3143 23.4288 57.7795 29.5363 53.9564C26.9926 56.6133 29.395 55.8215 28.9093 56.8784C28.5465 57.7128 26.9851 57.0733 27.9049 58.71C26.623 56.9377 22.0633 57.5577 21.1921 57.3005C21.232 57.2985 21.2618 57.2964 21.2864 57.2953C21.2366 57.2921 21.1738 57.2861 21.0689 57.2796C21.056 57.2788 21.0423 57.2786 21.0278 57.2778C21.0204 57.2775 21.0123 57.2765 21.0045 57.2761H21.0012C20.978 57.2774 20.8856 57.2837 20.7448 57.2953C20.6476 57.3036 20.5265 57.3125 20.3109 57.3371C20.0736 57.369 19.8385 57.381 18.9881 57.5552C18.5063 57.677 18.0156 57.7137 16.3081 58.4013C15.375 58.863 14.2686 59.0971 11.272 61.6372C9.77183 63.0747 7.53018 64.928 4.59688 70.8688C1.64011 76.2569 -1.20066 90.1242 1.23212 101.055C3.46904 111.851 7.20463 116.226 9.24784 118.703C11.4376 121.142 12.8146 122.007 13.86 122.696C15.9042 123.944 16.781 124.162 17.501 124.423C18.8464 124.846 19.3026 124.884 19.7172 124.961C20.4661 125.075 20.6946 125.079 20.9135 125.099C21.1151 125.113 21.2306 125.117 21.323 125.121C21.487 125.128 21.6196 125.132 21.6127 125.132C21.6157 125.132 21.6186 125.131 21.6215 125.132C21.6704 125.136 21.7041 125.141 21.7314 125.146C21.7851 125.154 21.8137 125.164 21.8357 125.174C21.915 125.213 21.9063 125.265 21.9112 125.329C21.9113 125.392 21.9156 125.467 21.9001 125.55C21.8908 125.592 21.8765 125.635 21.8313 125.681C21.8077 125.704 21.7772 125.728 21.7181 125.751C21.7031 125.757 21.6859 125.763 21.6659 125.768C21.6558 125.771 21.6445 125.774 21.6326 125.777C21.6267 125.779 21.6202 125.779 21.6138 125.781C21.6123 125.781 21.6108 125.782 21.6093 125.782C21.6124 125.783 21.6081 125.783 21.515 125.781C21.3973 125.777 21.2826 125.778 20.8503 125.747C20.6014 125.724 20.3641 125.726 19.4442 125.573C18.9132 125.454 18.4099 125.462 16.4146 124.699C15.3052 124.127 14.0245 124.066 10.1334 120.436C8.25028 118.389 5.00665 115.363 2.02004 106.06C-1.25988 96.9415 -0.270346 80.5873 3.01327 73.407C6.08143 65.7398 8.77293 63.385 10.4597 61.625C12.1991 59.986 13.2966 59.323 14.154 58.8007C15.8304 57.8349 16.6031 57.606 17.2325 57.3755C18.4191 56.9837 18.8528 56.9249 19.2356 56.8435C19.9358 56.7138 20.1606 56.6985 20.3708 56.6725C20.7476 56.6324 20.8606 56.6269 20.9701 56.6184C20.9983 56.6158 20.9828 56.6161 20.989 56.6149C20.9929 56.6132 20.9974 56.6115 21.0012 56.6097C21.0088 56.6062 21.0162 56.6027 21.0234 56.5992C21.0381 56.5922 21.0525 56.5853 21.0656 56.5783C21.4424 56.3592 21.4095 56.1378 21.4717 55.898C21.5315 55.6587 21.5663 55.4091 21.6171 55.1653ZM541.7 121.779C541.054 123.606 540.471 123.984 538.312 124.092C541.457 122.852 538.306 122.225 541.7 121.779ZM549.757 118.142C550.47 117.872 551.272 117.722 551.607 118.639C551.246 118.664 550.436 118.904 549.875 118.825C549.853 118.822 549.83 118.819 549.808 118.815C549.53 118.765 549.297 118.639 549.254 118.347C549.401 118.285 549.551 118.221 549.694 118.164C549.715 118.156 549.736 118.15 549.757 118.142ZM566.352 111.223C565.669 113.002 563.61 113.803 562.252 114.096C561.923 112.221 565.573 111.987 566.352 111.223ZM567.789 112.444C566.818 110.366 570.033 110.586 569.104 112.613C569.06 112.686 567.846 112.515 567.789 112.444ZM37.1147 100.069C36.7314 99.5688 36.4965 97.8972 35.6221 98.8009C36.5514 100.015 37.3117 101.234 38.209 102.449C38.8532 99.5904 37.5201 100.621 37.1147 100.069ZM574.289 96.4093C572.828 95.6134 575.717 94.0917 575.892 94.3561C576.407 95.2459 574.943 96.7629 574.289 96.4093ZM33.7766 89.7839C33.8782 89.7076 33.2418 85.3639 34.7543 88.2366C35.8348 90.1751 30.1657 92.2496 29.1112 90.3439C30.3042 89.4112 32.6887 90.3746 33.7766 89.7839ZM23.5891 71.1602C23.5413 70.8131 25.6552 70.2422 25.9396 70.4798C27.2432 71.7378 23.9694 73.0152 23.5891 71.1602ZM30.4895 71.8021C29.465 70.9823 31.7617 70.3716 32.3794 70.8427C32.4739 71.6527 30.632 71.9217 30.4895 71.8021ZM23.7634 67.6556C23.7328 66.8444 25.466 66.5776 25.6632 66.6961C26.6949 67.5155 24.4276 68.1247 23.7634 67.6556ZM24.963 52.8923C25.097 51.6328 29.2802 52.3981 30.0667 52.3655C29.6174 53.5454 24.9092 54.3336 24.963 52.8923ZM39.3298 42.621C38.1338 41.7073 40.9073 41.2432 41.6958 41.6755C41.791 42.427 39.4087 42.6996 39.3298 42.621ZM551.496 39.9328C549.936 37.4918 549.965 44.0725 551.439 42.157C551.509 42.0625 551.565 40.0548 551.496 39.9328ZM535.279 41.4417C534.612 41.4678 533.255 41.3373 533.17 42.5058C533.622 42.1647 535.162 42.7004 535.279 41.4417ZM546.385 39.3746C545.731 39.74 543.95 39.914 543.606 40.2869C542.393 41.5838 546.049 41.5723 546.385 39.3746ZM522.043 39.3135C519.859 37.5724 521.431 41.7329 522.52 40.812C522.563 40.7408 522.097 39.3594 522.043 39.3135ZM529.285 38.1988C528.552 36.5622 528.239 40.9794 529.193 40.9062C529.492 40.8714 529.364 38.3872 529.285 38.1988ZM533.631 38.6175C532.759 37.3654 533.209 41.7807 533.809 40.1979C533.833 40.1283 533.669 38.6906 533.631 38.6175ZM549.621 33.3859C547.822 31.9008 549.467 38.6401 549.692 38.8477C550.617 39.6511 552.749 35.9096 553.171 35.0274C549.483 37.5803 550.465 34.092 549.621 33.3859ZM502.169 37.7958C502.109 37.7277 500.442 37.7135 500.361 37.7801C498.871 39.2001 503.568 39.2467 502.169 37.7958ZM43.3604 35.8141C41.6875 37.3389 36.2147 29.7265 41.9777 30.8773C41.9763 30.8774 41.9745 30.8773 41.9732 30.8773C43.4561 31.179 42.5555 32.4621 42.6235 32.4997C45.9077 34.2563 44.9303 31.4353 45.4434 31.0849C46.4505 30.3551 46.3946 33.5633 47.9936 32.4456C45.2956 34.4777 47.9513 33.5733 48.0214 34.7779C48.4021 39.7965 44.076 32.5319 42.5392 33.6283C42.3306 33.7816 43.8924 35.3431 43.3604 35.8141ZM48.635 35.139C48.6033 35.113 48.5728 35.0827 48.544 35.0483C48.5754 35.0772 48.6048 35.1104 48.635 35.139ZM541.481 24.4491C539.942 25.2312 538.406 26.0211 536.886 26.811C539.1 30.2549 535.737 30.3705 534.108 27.4966C534.081 27.5908 534.055 27.685 534.028 27.7792C534.014 27.8282 534.001 27.8787 533.987 27.9275C533.743 28.799 533.554 29.6463 533.404 30.4744C532.064 25.5809 533.198 33.7659 531.87 29.7644C531.939 33.9603 532.546 32.5313 534.647 31.7199C534.668 31.7121 534.689 31.7048 534.709 31.6972C535.856 31.2776 536.959 31.288 537.558 32.9306C536.026 33.458 535.329 33.8933 535.147 34.2075C535.123 34.2483 535.109 34.2876 535.101 34.3244C535.088 34.3896 535.099 34.4482 535.131 34.5006C535.151 34.5326 535.179 34.5625 535.213 34.5895C536.087 35.2764 541.563 34.2742 536.819 30.436C541.752 31.3522 538.115 28.8577 538.632 27.5786C539.189 26.2139 541.936 26.2881 541.486 24.4473C541.484 24.4479 541.483 24.4485 541.481 24.4491ZM531.629 31.9607C530.611 30.6303 531.609 35.5522 532.083 34.04C532.107 33.9519 531.675 32.0212 531.629 31.9607ZM542.61 30.6872C542.437 30.6554 539.169 32.6425 539.527 33.3737C540.058 33.7032 544.745 31.0796 542.61 30.6872ZM546.572 26.6488C545.37 26.3473 544.486 29.9067 546.831 29.3056C546.098 30.0908 545.374 30.8756 544.645 31.6641C547.912 32.1194 547.019 28.0561 547.909 27.8786C549.16 27.6384 549.613 31.1163 549.547 32.2904C550.191 29.7887 554.402 28.1065 556.781 26.7971C554.502 26.711 550.781 26.5239 548.575 26.811C547.945 26.8897 547.514 28.0633 546.982 28.1665C546.134 28.3237 546.639 26.675 546.576 26.6471C546.575 26.6476 546.573 26.6482 546.572 26.6488ZM520.014 30.6732C519.388 30.9179 517.492 30.1359 517.452 31.2716C518.072 31.0406 519.994 31.8122 520.014 30.6732ZM45.5155 29.726C45.0575 27.8048 47.5589 28.1974 47.9093 28.5258C48.0887 28.6656 46.0647 32.2261 45.5155 29.726ZM557.499 23.8647C556.266 24.3111 554.237 24.2313 553.804 26.0417C555.037 25.579 557.06 25.668 557.499 23.8647ZM545.208 22.6802C544.857 22.5502 542.037 23.4643 542.016 24.8136C543.595 25.8922 546.002 22.9849 545.208 22.6802ZM311.168 24.9253C312.412 23.6081 309.472 22.1973 308.941 23.2088C308.679 23.7128 310.622 25.5034 311.168 24.9253ZM290.598 20.0914C289.104 20.3967 287.59 25.7742 289.444 24.8904C289.642 24.7898 290.778 20.8256 290.598 20.0914ZM558.994 18.4883C555.869 14.9906 553.282 21.335 552.904 21.3701C552.524 21.3963 552.794 19.2652 552.704 19.2419C552.496 19.2022 548.638 20.8758 548.475 21.0875C548.36 21.2485 549.486 23.6586 548.827 24.8206C550.132 22.6556 557.372 20.9169 557.695 20.4996C557.945 20.1554 555.365 18.1114 558.99 18.49C558.991 18.4895 558.993 18.4888 558.994 18.4883ZM519.096 23.2245C516.438 24.1576 521.636 25.2998 520.882 23.6379C520.82 23.5413 519.372 23.1285 519.096 23.2245ZM530.162 21.391C530.078 21.2409 529.165 21.6655 527.501 22.2388C525.908 22.8061 523.753 23.4757 523.305 23.8054C523.781 24.1667 525.955 24.0753 527.584 23.8141C529.269 23.5503 530.257 23.1516 530.295 22.9279C530.327 22.7908 530.189 21.4378 530.162 21.391ZM296.99 22.0382C295.587 23.4085 298.641 24.4021 298.341 22.6575C298.301 22.5637 297.051 21.983 296.99 22.0382ZM329.322 22.0818C329.163 21.9637 327.346 22.2469 327.427 23.057C328.101 23.5237 330.351 22.8973 329.322 22.0818ZM551.896 21.1364C553.04 21.8912 550.349 23.0819 549.629 22.9262C548.02 22.5686 551.749 21.0462 551.896 21.1364ZM303.454 21.8306C302.196 19.7679 300.089 20.0402 300.645 22.7692C302.971 22.5133 300.328 20.3108 303.454 21.8306ZM539.247 16.9183C538.4 19.8415 537.087 18.4436 535.443 19.275C535.004 19.5006 535.291 20.4383 535.247 20.4682C534.479 20.8457 534.859 19.4484 534.38 19.6344C534.285 19.6726 533.617 20.1073 532.781 20.6095C532.76 20.6217 532.74 20.6341 532.72 20.6462C531.798 21.1972 531.275 21.5522 530.965 21.6039C530.651 21.6585 530.435 21.4619 530.456 20.7997C530.473 20.5019 530.599 20.2838 530.855 20.0879C531.114 19.8914 531.519 19.709 532.489 19.3169C532.51 19.3086 532.53 19.3007 532.551 19.2925C535.193 18.23 538.448 17.2489 539.247 16.9183ZM389.026 19.6291C387.441 17.7797 387.583 21.3156 388.728 21.2253C389.131 21.1936 389.076 19.6885 389.026 19.6291ZM519.245 20.4508C519.117 20.3855 516.318 20.1233 516.29 21.0422C516.733 21.3614 520.763 21.207 519.245 20.4508ZM346.028 20.4892C345.976 19.364 343.905 19.9425 344.19 20.6584C344.285 20.8989 346.071 21.4 346.028 20.4892ZM389.513 19.1076C388.6 19.7778 390.225 22.2813 391.309 19.7408C390.744 19.9655 389.611 19.0429 389.513 19.1076ZM378.866 19.6815C378.066 19.9512 375.96 19.5637 375.601 20.5903C376.594 20.3464 379.161 21.6928 378.866 19.6815ZM510.203 20.5711C511.836 18.9142 506.556 19.0903 506.239 19.4966C506.486 20.4221 510.009 20.7396 510.203 20.5711ZM133.927 18.6941C133.337 20.5628 137.89 20.8963 136.675 19.3884C136.403 19.0539 134.493 18.6919 133.927 18.6941ZM517.153 19.4163C519.084 22.3491 523.624 15.741 520.49 17.1834C520.427 17.2195 521.159 18.8951 519.86 18.8337C519.744 18.8225 519.515 16.8637 517.877 17.7818C517.549 17.9697 517.117 19.3383 517.153 19.4163ZM284.664 18.6959C285.561 16.7502 280.838 17.3248 280.466 19.5559C281.093 19.8449 284.553 18.9168 284.664 18.6959ZM394.684 16.6618C394.027 16.5256 393.562 19.1797 393.638 19.3012C394.367 20.4561 395.348 17.6642 394.684 16.6618ZM154.249 19.2576C154.848 18.7288 152.398 17.464 152.42 18.8965C152.427 19.3557 154.167 19.3263 154.249 19.2576ZM530.568 17.0753C530.76 17.1551 530.968 17.3649 531.025 17.6911C531.087 18.0148 530.966 18.4709 530.734 18.9314C530.625 19.1093 530.097 18.0216 529.894 18.729C529.902 17.2568 530.185 16.9166 530.568 17.0753ZM439.369 17.0212C438.343 18.1875 441.686 19.5573 440.74 17.623C440.696 17.5444 439.427 16.9563 439.369 17.0212ZM306.401 13.3491C306.836 13.0043 307.208 9.24069 309.534 11.0709C309.536 11.0708 309.537 11.0709 309.539 11.0709C310.219 11.6051 309.465 12.542 309.591 12.8642C309.638 12.9957 311.759 14.7969 310.021 15.1511C307.369 15.6938 309.736 12.3678 308.317 12.3722C308.144 12.3754 305.484 14.489 305.645 14.9296C305.67 14.9758 306.464 14.5273 306.601 14.7063C307.113 15.3865 306.883 16.5653 306.955 16.62C307.19 16.7556 311.409 14.6282 312.045 16.3513C312.255 16.9071 305.305 18.4197 305.026 18.1359C304.852 17.9531 304.884 14.7064 304.702 14.3906C304.608 14.2342 301.83 15.5382 301.462 15.2506C301.356 15.1677 301.275 15.0776 301.215 15.0029C301.649 15.9946 299.117 16 299.18 14.8633C299.218 14.4161 300.964 14.6198 301.029 14.6958C301.056 14.728 301.08 14.7733 301.103 14.804C300.727 13.5897 306.627 13.4626 305.332 11.6779C307.037 10.6255 305.123 14.3613 306.401 13.3491ZM453.588 17.0543C452.838 16.7096 449.543 16.9737 450.846 18.012C451.058 18.171 453.556 18.0844 453.588 17.0543ZM412.65 16.6636C412.693 14.9891 409.518 16.0539 410.798 17.3928C411.117 17.7272 412.612 17.224 412.65 16.6636ZM178.937 16.2868C176.848 17.5597 183.165 17.9089 181.22 16.4159C181.121 16.3433 179.043 16.2248 178.937 16.2868ZM128.54 15.9763C129.363 14.2644 132.748 16.2525 132.163 16.9654C132.02 17.1197 128.291 16.9118 128.54 15.9763ZM39.7349 15.6692C39.7774 15.6168 41.1295 15.6812 41.1376 15.7408C42.2992 17.2351 38.4216 17.0299 39.7349 15.6692ZM187.732 15.7006C187.223 15.7801 184.966 15.2411 184.944 15.8071C184.91 16.7195 187.491 17.2689 187.732 15.7006ZM546.437 14.1324C546.987 12.195 547.828 13.9225 547.934 13.9074C548.976 13.7575 551.006 12.5847 550.792 14.319C548.916 14.3708 545.344 17.9812 546.437 14.1324ZM448.246 14.1498C448.037 13.9823 443.872 13.2451 443.692 13.4207C441.559 15.5081 450.679 16.5308 448.246 14.1498ZM311.694 14.1638C313.563 12.9233 312.5 10.3886 314.605 11.0866C314.433 11.4338 314.261 11.7808 314.089 12.128C317.058 11.1982 320.574 12.7341 324.014 12.613C324.888 12.5847 323.856 10.5254 325.009 11.0604C325.932 11.4896 326.97 13.3964 326.477 13.8446C326.356 13.9548 324.476 12.7544 323.541 12.913C320.781 13.3842 321.5 15.1534 321.339 15.207C321.16 15.2627 319.402 14.059 318.448 14.1446C316.045 14.3653 314.978 15.5 311.694 14.1638ZM464.688 14.8441C464.561 14.8157 464.436 14.7822 464.311 14.7395C464.438 14.7733 464.563 14.8102 464.688 14.8441ZM458.581 14.0033C458.205 13.8001 458.292 8.17646 459.847 10.2702C460.051 10.5417 459.151 12.0691 459.319 12.4019C459.393 12.5925 462.788 13.2208 462.954 13.0822C463.12 12.9252 462.887 11.1345 463.054 10.9243C463.248 10.6911 465.349 12.1699 466.401 12.135C468.376 12.0669 468.652 10.5539 468.803 10.5406C469.298 10.5057 470.149 11.5271 471.129 11.4756C476.1 11.2119 483.581 9.52569 487.62 12.4577C484.042 11.3972 480.771 12.9381 477.344 13.541C478.318 10.3583 472.223 16.2271 475.788 12.4246C474.141 13.308 459.762 14.6437 458.585 14.0033C458.584 14.0034 458.582 14.0032 458.581 14.0033ZM504.208 13.5428C503.28 12.5858 505.96 11.3676 506.871 12.4926C507.309 14.1883 504.347 13.6535 504.208 13.5428ZM527.653 11.3971C527.433 12.9228 525.948 12.7856 525.016 13.1904C524.838 11.3377 527.31 11.8399 527.653 11.3971ZM353.381 11.664C353.495 11.6022 355.166 11.9605 355.219 12.053C356.348 13.9819 350.85 13.0264 353.381 11.664ZM552.821 9.3212C554.767 10.5132 547.201 12.9596 546.719 12.8293C547.062 11.6964 552.557 9.14881 552.821 9.3212ZM426.31 11.0622C426.408 9.9296 428.363 10.8544 429.055 10.6609C428.965 11.796 427.019 10.8684 426.31 11.0622ZM546.569 11.2261C546.139 10.5307 546.473 7.82753 547.322 8.79438C547.686 9.21283 547.394 10.8689 546.569 11.2261ZM376.372 8.76472C388.76 6.69013 386.06 11.246 375.643 9.8079C375.609 8.47003 375.586 8.89519 376.372 8.76472ZM354.404 9.84453C354.089 7.82606 357.832 8.52759 358.124 8.96882C359.299 10.7429 354.708 9.38742 354.404 9.84453ZM395.024 9.6509C394.752 7.57317 397.74 9.04691 398.753 8.74728C399.028 10.8249 396.058 9.35093 395.024 9.6509ZM392.281 8.45595C391.855 9.80832 390.452 9.46282 389.501 9.38923C389.66 8.45386 391.607 8.72033 392.281 8.45595ZM547.79 8.38443C548.276 6.65983 553.94 5.97361 552.677 7.70758C552.473 7.97415 547.07 10.8776 547.79 8.38443ZM403.929 6.29458C404.006 6.23076 405.702 6.31315 405.778 6.38355C407.188 7.88471 402.389 7.66214 403.929 6.29458ZM412.63 7.21914C413.278 5.60469 415.183 6.35055 416.386 6.32598C415.86 7.70483 413.672 7.20867 412.63 7.21914Z" fill="#FFE7E9"/>
</svg>
